# MagicaVoxel @ Ephtracy

# group
g newPrototypeLevel-13

# material
mtllib newPrototypeLevel-13.mtl
usemtl palette

# normals
vn -1 0 0
vn 1 0 0
vn 0 0 1
vn 0 0 -1
vn 0 -1 0
vn 0 1 0

# texcoords
vt 0.873047 0.5
vt 0.880859 0.5

# verts
v -62.5 0 62.5
v -62.5 0 -62.5
v -62.5 1 62.5
v -62.5 1 -62.5
v -16.5 1 10.5
v -16.5 1 9.5
v -16.5 1 -20.5
v -16.5 1 -21.5
v -16.5 2 10.5
v -16.5 2 9.5
v -16.5 2 -20.5
v -16.5 2 -21.5
v -14.5 1 9.5
v -14.5 1 8.5
v -14.5 2 9.5
v -14.5 2 8.5
v -9.5 1 -21.5
v -9.5 1 -22.5
v -9.5 2 -21.5
v -9.5 2 -22.5
v -6.5 1 32.5
v -6.5 1 27.5
v -6.5 2 32.5
v -6.5 2 27.5
v -5.5 1 27.5
v -5.5 1 9.5
v -5.5 2 27.5
v -5.5 2 9.5
v -5.5 2 8.5
v -5.5 3 9.5
v -5.5 3 8.5
v -4.5 1 8.5
v -4.5 1 -2.5
v -4.5 2 8.5
v -4.5 2 -2.5
v -3.5 1 9.5
v -3.5 1 8.5
v -3.5 1 -2.5
v -3.5 1 -3.5
v -3.5 2 9.5
v -3.5 2 8.5
v -3.5 2 -2.5
v -3.5 3 -2.5
v -3.5 3 -3.5
v -1.5 1 -22.5
v -1.5 1 -23.5
v -1.5 2 -22.5
v -1.5 2 -23.5
v -0.5 1 -1.5
v -0.5 1 -2.5
v -0.5 2 -1.5
v -0.5 2 -2.5
v 2.5 1 -0.5
v 2.5 1 -1.5
v 2.5 2 -0.5
v 2.5 2 -1.5
v 3.5 1 0.5
v 3.5 1 -0.5
v 3.5 2 0.5
v 3.5 2 -0.5
v 4.5 1 -1.5
v 4.5 1 -2.5
v 4.5 2 -1.5
v 4.5 2 -2.5
v 5.5 1 -23.5
v 5.5 1 -24.5
v 5.5 2 -23.5
v 5.5 2 -24.5
v 6.5 1 1.5
v 6.5 1 0.5
v 6.5 2 1.5
v 6.5 2 0.5
v 7.5 1 7.5
v 7.5 1 6.5
v 7.5 2 7.5
v 7.5 2 6.5
v 8.5 1 2.5
v 8.5 1 1.5
v 8.5 2 2.5
v 8.5 2 1.5
v 11.5 1 3.5
v 11.5 1 2.5
v 11.5 2 3.5
v 11.5 2 2.5
v 14.5 1 4.5
v 14.5 1 3.5
v 14.5 1 -24.5
v 14.5 1 -25.5
v 14.5 2 4.5
v 14.5 2 3.5
v 14.5 2 -24.5
v 14.5 2 -25.5
v 16.5 1 6.5
v 16.5 1 4.5
v 16.5 2 6.5
v 16.5 2 4.5
v 18.5 1 8.5
v 18.5 1 7.5
v 18.5 1 -25.5
v 18.5 1 -26.5
v 18.5 2 8.5
v 18.5 2 7.5
v 18.5 2 -25.5
v 18.5 2 -26.5
v -13.5 1 10.5
v -13.5 1 9.5
v -13.5 2 10.5
v -13.5 2 9.5
v -8.5 1 -20.5
v -8.5 1 -21.5
v -8.5 2 -20.5
v -8.5 2 -21.5
v -5.5 1 32.5
v -5.5 1 28.5
v -5.5 2 32.5
v -5.5 2 28.5
v -4.5 1 28.5
v -4.5 1 8.5
v -4.5 2 28.5
v -4.5 2 9.5
v -4.5 2 8.5
v -4.5 3 9.5
v -4.5 3 8.5
v -3.5 1 7.5
v -3.5 1 -2.5
v -3.5 2 7.5
v -3.5 2 -2.5
v -2.5 1 9.5
v -2.5 1 8.5
v -2.5 2 9.5
v -2.5 2 8.5
v -1.5 1 -21.5
v -1.5 1 -22.5
v -1.5 2 -21.5
v -1.5 2 -22.5
v -0.5 2 -2.5
v -0.5 2 -3.5
v -0.5 3 -2.5
v -0.5 3 -3.5
v 3.5 1 -1.5
v 3.5 1 -2.5
v 3.5 2 -1.5
v 3.5 2 -2.5
v 4.5 1 -0.5
v 4.5 1 -1.5
v 4.5 1 -2.5
v 4.5 1 -3.5
v 4.5 2 -0.5
v 4.5 2 -1.5
v 4.5 2 -2.5
v 4.5 2 -3.5
v 5.5 1 -22.5
v 5.5 1 -23.5
v 5.5 2 -22.5
v 5.5 2 -23.5
v 6.5 1 -1.5
v 6.5 1 -2.5
v 6.5 2 -1.5
v 6.5 2 -2.5
v 7.5 1 0.5
v 7.5 1 -0.5
v 7.5 2 0.5
v 7.5 2 -0.5
v 8.5 1 8.5
v 8.5 1 7.5
v 8.5 2 8.5
v 8.5 2 7.5
v 9.5 1 1.5
v 9.5 1 0.5
v 9.5 2 1.5
v 9.5 2 0.5
v 11.5 1 2.5
v 11.5 1 1.5
v 11.5 2 2.5
v 11.5 2 1.5
v 14.5 1 3.5
v 14.5 1 2.5
v 14.5 1 -23.5
v 14.5 1 -24.5
v 14.5 2 3.5
v 14.5 2 2.5
v 14.5 2 -23.5
v 14.5 2 -24.5
v 16.5 1 4.5
v 16.5 1 3.5
v 16.5 2 4.5
v 16.5 2 3.5
v 17.5 1 5.5
v 17.5 1 4.5
v 17.5 2 5.5
v 17.5 2 4.5
v 18.5 1 6.5
v 18.5 1 5.5
v 18.5 1 -24.5
v 18.5 1 -25.5
v 18.5 2 6.5
v 18.5 2 5.5
v 18.5 2 -24.5
v 18.5 2 -25.5
v 19.5 1 8.5
v 19.5 1 6.5
v 19.5 2 8.5
v 19.5 2 6.5
v 20.5 1 -25.5
v 20.5 1 -26.5
v 20.5 2 -25.5
v 20.5 2 -26.5
v 62.5 0 62.5
v 62.5 0 -62.5
v 62.5 1 62.5
v 62.5 1 -62.5
v -62.5 0 62.5
v -62.5 1 62.5
v 62.5 0 62.5
v 62.5 1 62.5
v -6.5 1 32.5
v -6.5 2 32.5
v -5.5 1 32.5
v -5.5 2 32.5
v -5.5 1 28.5
v -5.5 2 28.5
v -4.5 1 28.5
v -4.5 2 28.5
v -16.5 1 10.5
v -16.5 2 10.5
v -13.5 1 10.5
v -13.5 2 10.5
v -13.5 1 9.5
v -13.5 2 9.5
v -5.5 1 9.5
v -5.5 2 9.5
v -5.5 3 9.5
v -4.5 2 9.5
v -4.5 3 9.5
v -3.5 1 9.5
v -3.5 2 9.5
v -2.5 1 9.5
v -2.5 2 9.5
v -4.5 1 8.5
v -4.5 2 8.5
v -3.5 1 8.5
v -3.5 2 8.5
v -2.5 1 8.5
v -2.5 2 8.5
v 8.5 1 8.5
v 8.5 2 8.5
v 18.5 1 8.5
v 18.5 2 8.5
v 19.5 1 8.5
v 19.5 2 8.5
v 8.5 1 7.5
v 8.5 2 7.5
v 18.5 1 7.5
v 18.5 2 7.5
v 14.5 1 4.5
v 14.5 2 4.5
v 16.5 1 4.5
v 16.5 2 4.5
v 11.5 1 3.5
v 11.5 2 3.5
v 14.5 1 3.5
v 14.5 2 3.5
v 8.5 1 2.5
v 8.5 2 2.5
v 11.5 1 2.5
v 11.5 2 2.5
v 6.5 1 1.5
v 6.5 2 1.5
v 8.5 1 1.5
v 8.5 2 1.5
v 3.5 1 0.5
v 3.5 2 0.5
v 6.5 1 0.5
v 6.5 2 0.5
v 2.5 1 -0.5
v 2.5 2 -0.5
v 3.5 1 -0.5
v 3.5 2 -0.5
v -0.5 1 -1.5
v -0.5 2 -1.5
v 2.5 1 -1.5
v 2.5 2 -1.5
v 4.5 1 -1.5
v 4.5 2 -1.5
v 6.5 1 -1.5
v 6.5 2 -1.5
v -3.5 1 -2.5
v -3.5 2 -2.5
v -3.5 3 -2.5
v -0.5 1 -2.5
v -0.5 2 -2.5
v -0.5 3 -2.5
v 3.5 1 -2.5
v 3.5 2 -2.5
v 4.5 1 -2.5
v 4.5 2 -2.5
v -16.5 1 -20.5
v -16.5 2 -20.5
v -8.5 1 -20.5
v -8.5 2 -20.5
v -8.5 1 -21.5
v -8.5 2 -21.5
v -1.5 1 -21.5
v -1.5 2 -21.5
v -1.5 1 -22.5
v -1.5 2 -22.5
v 5.5 1 -22.5
v 5.5 2 -22.5
v 5.5 1 -23.5
v 5.5 2 -23.5
v 14.5 1 -23.5
v 14.5 2 -23.5
v 14.5 1 -24.5
v 14.5 2 -24.5
v 18.5 1 -24.5
v 18.5 2 -24.5
v 18.5 1 -25.5
v 18.5 2 -25.5
v 20.5 1 -25.5
v 20.5 2 -25.5
v -6.5 1 27.5
v -6.5 2 27.5
v -5.5 1 27.5
v -5.5 2 27.5
v -16.5 1 9.5
v -16.5 2 9.5
v -14.5 1 9.5
v -14.5 2 9.5
v -14.5 1 8.5
v -14.5 2 8.5
v -5.5 2 8.5
v -5.5 3 8.5
v -4.5 1 8.5
v -4.5 2 8.5
v -4.5 3 8.5
v -3.5 1 7.5
v -3.5 2 7.5
v 7.5 1 7.5
v 7.5 2 7.5
v 7.5 1 6.5
v 7.5 2 6.5
v 16.5 1 6.5
v 16.5 2 6.5
v 18.5 1 6.5
v 18.5 2 6.5
v 19.5 1 6.5
v 19.5 2 6.5
v 17.5 1 5.5
v 17.5 2 5.5
v 18.5 1 5.5
v 18.5 2 5.5
v 16.5 1 4.5
v 16.5 2 4.5
v 17.5 1 4.5
v 17.5 2 4.5
v 14.5 1 3.5
v 14.5 2 3.5
v 16.5 1 3.5
v 16.5 2 3.5
v 11.5 1 2.5
v 11.5 2 2.5
v 14.5 1 2.5
v 14.5 2 2.5
v 9.5 1 1.5
v 9.5 2 1.5
v 11.5 1 1.5
v 11.5 2 1.5
v 7.5 1 0.5
v 7.5 2 0.5
v 9.5 1 0.5
v 9.5 2 0.5
v 4.5 1 -0.5
v 4.5 2 -0.5
v 7.5 1 -0.5
v 7.5 2 -0.5
v 3.5 1 -1.5
v 3.5 2 -1.5
v 4.5 1 -1.5
v 4.5 2 -1.5
v -4.5 1 -2.5
v -4.5 2 -2.5
v -3.5 1 -2.5
v -3.5 2 -2.5
v 4.5 1 -2.5
v 4.5 2 -2.5
v 6.5 1 -2.5
v 6.5 2 -2.5
v -3.5 1 -3.5
v -3.5 3 -3.5
v -0.5 2 -3.5
v -0.5 3 -3.5
v 4.5 1 -3.5
v 4.5 2 -3.5
v -16.5 1 -21.5
v -16.5 2 -21.5
v -9.5 1 -21.5
v -9.5 2 -21.5
v -9.5 1 -22.5
v -9.5 2 -22.5
v -1.5 1 -22.5
v -1.5 2 -22.5
v -1.5 1 -23.5
v -1.5 2 -23.5
v 5.5 1 -23.5
v 5.5 2 -23.5
v 5.5 1 -24.5
v 5.5 2 -24.5
v 14.5 1 -24.5
v 14.5 2 -24.5
v 14.5 1 -25.5
v 14.5 2 -25.5
v 18.5 1 -25.5
v 18.5 2 -25.5
v 18.5 1 -26.5
v 18.5 2 -26.5
v 20.5 1 -26.5
v 20.5 2 -26.5
v -62.5 0 -62.5
v -62.5 1 -62.5
v 62.5 0 -62.5
v 62.5 1 -62.5
v -62.5 0 62.5
v 62.5 0 62.5
v -62.5 0 -62.5
v 62.5 0 -62.5
v -62.5 1 62.5
v 62.5 1 62.5
v -6.5 1 32.5
v -5.5 1 32.5
v -5.5 1 28.5
v -4.5 1 28.5
v -6.5 1 27.5
v -5.5 1 27.5
v -16.5 1 10.5
v -13.5 1 10.5
v -16.5 1 9.5
v -14.5 1 9.5
v -13.5 1 9.5
v -5.5 1 9.5
v -3.5 1 9.5
v -2.5 1 9.5
v -14.5 1 8.5
v -4.5 1 8.5
v -3.5 1 8.5
v -2.5 1 8.5
v 8.5 1 8.5
v 18.5 1 8.5
v 19.5 1 8.5
v -3.5 1 7.5
v 7.5 1 7.5
v 8.5 1 7.5
v 18.5 1 7.5
v 7.5 1 6.5
v 16.5 1 6.5
v 18.5 1 6.5
v 19.5 1 6.5
v 17.5 1 5.5
v 18.5 1 5.5
v 14.5 1 4.5
v 16.5 1 4.5
v 17.5 1 4.5
v 11.5 1 3.5
v 14.5 1 3.5
v 16.5 1 3.5
v 8.5 1 2.5
v 11.5 1 2.5
v 14.5 1 2.5
v 6.5 1 1.5
v 8.5 1 1.5
v 9.5 1 1.5
v 11.5 1 1.5
v 3.5 1 0.5
v 6.5 1 0.5
v 7.5 1 0.5
v 9.5 1 0.5
v 2.5 1 -0.5
v 3.5 1 -0.5
v 4.5 1 -0.5
v 7.5 1 -0.5
v -0.5 1 -1.5
v 2.5 1 -1.5
v 3.5 1 -1.5
v 4.5 1 -1.5
v 6.5 1 -1.5
v -4.5 1 -2.5
v -3.5 1 -2.5
v -0.5 1 -2.5
v 3.5 1 -2.5
v 4.5 1 -2.5
v 6.5 1 -2.5
v -3.5 1 -3.5
v 4.5 1 -3.5
v -16.5 1 -20.5
v -8.5 1 -20.5
v -16.5 1 -21.5
v -9.5 1 -21.5
v -8.5 1 -21.5
v -1.5 1 -21.5
v -9.5 1 -22.5
v -1.5 1 -22.5
v 5.5 1 -22.5
v -1.5 1 -23.5
v 5.5 1 -23.5
v 14.5 1 -23.5
v 5.5 1 -24.5
v 14.5 1 -24.5
v 18.5 1 -24.5
v 14.5 1 -25.5
v 18.5 1 -25.5
v 20.5 1 -25.5
v 18.5 1 -26.5
v 20.5 1 -26.5
v -62.5 1 -62.5
v 62.5 1 -62.5
v -6.5 2 32.5
v -5.5 2 32.5
v -5.5 2 28.5
v -4.5 2 28.5
v -6.5 2 27.5
v -5.5 2 27.5
v -16.5 2 10.5
v -13.5 2 10.5
v -16.5 2 9.5
v -14.5 2 9.5
v -13.5 2 9.5
v -5.5 2 9.5
v -4.5 2 9.5
v -3.5 2 9.5
v -2.5 2 9.5
v -14.5 2 8.5
v -5.5 2 8.5
v -4.5 2 8.5
v -3.5 2 8.5
v -2.5 2 8.5
v 8.5 2 8.5
v 18.5 2 8.5
v 19.5 2 8.5
v -3.5 2 7.5
v 7.5 2 7.5
v 8.5 2 7.5
v 18.5 2 7.5
v 7.5 2 6.5
v 16.5 2 6.5
v 18.5 2 6.5
v 19.5 2 6.5
v 17.5 2 5.5
v 18.5 2 5.5
v 14.5 2 4.5
v 16.5 2 4.5
v 17.5 2 4.5
v 11.5 2 3.5
v 14.5 2 3.5
v 16.5 2 3.5
v 8.5 2 2.5
v 11.5 2 2.5
v 14.5 2 2.5
v 6.5 2 1.5
v 8.5 2 1.5
v 9.5 2 1.5
v 11.5 2 1.5
v 3.5 2 0.5
v 6.5 2 0.5
v 7.5 2 0.5
v 9.5 2 0.5
v 2.5 2 -0.5
v 3.5 2 -0.5
v 4.5 2 -0.5
v 7.5 2 -0.5
v -0.5 2 -1.5
v 2.5 2 -1.5
v 3.5 2 -1.5
v 4.5 2 -1.5
v 6.5 2 -1.5
v -4.5 2 -2.5
v -3.5 2 -2.5
v -0.5 2 -2.5
v 3.5 2 -2.5
v 4.5 2 -2.5
v 6.5 2 -2.5
v -0.5 2 -3.5
v 4.5 2 -3.5
v -16.5 2 -20.5
v -8.5 2 -20.5
v -16.5 2 -21.5
v -9.5 2 -21.5
v -8.5 2 -21.5
v -1.5 2 -21.5
v -9.5 2 -22.5
v -1.5 2 -22.5
v 5.5 2 -22.5
v -1.5 2 -23.5
v 5.5 2 -23.5
v 14.5 2 -23.5
v 5.5 2 -24.5
v 14.5 2 -24.5
v 18.5 2 -24.5
v 14.5 2 -25.5
v 18.5 2 -25.5
v 20.5 2 -25.5
v 18.5 2 -26.5
v 20.5 2 -26.5
v -5.5 3 9.5
v -4.5 3 9.5
v -5.5 3 8.5
v -4.5 3 8.5
v -3.5 3 -2.5
v -0.5 3 -2.5
v -3.5 3 -3.5
v -0.5 3 -3.5

# faces
f 3/1/1 2/1/1 1/1/1
f 4/1/1 2/1/1 3/1/1
f 9/2/1 6/2/1 5/2/1
f 10/2/1 6/2/1 9/2/1
f 11/2/1 8/2/1 7/2/1
f 12/2/1 8/2/1 11/2/1
f 15/2/1 14/2/1 13/2/1
f 16/2/1 14/2/1 15/2/1
f 19/2/1 18/2/1 17/2/1
f 20/2/1 18/2/1 19/2/1
f 23/2/1 22/2/1 21/2/1
f 24/2/1 22/2/1 23/2/1
f 27/2/1 26/2/1 25/2/1
f 28/2/1 26/2/1 27/2/1
f 30/2/1 29/2/1 28/2/1
f 31/2/1 29/2/1 30/2/1
f 34/2/1 33/2/1 32/2/1
f 35/2/1 33/2/1 34/2/1
f 40/2/1 37/2/1 36/2/1
f 41/2/1 37/2/1 40/2/1
f 42/2/1 39/2/1 38/2/1
f 43/2/1 39/2/1 42/2/1
f 44/2/1 39/2/1 43/2/1
f 47/2/1 46/2/1 45/2/1
f 48/2/1 46/2/1 47/2/1
f 51/2/1 50/2/1 49/2/1
f 52/2/1 50/2/1 51/2/1
f 55/2/1 54/2/1 53/2/1
f 56/2/1 54/2/1 55/2/1
f 59/2/1 58/2/1 57/2/1
f 60/2/1 58/2/1 59/2/1
f 63/2/1 62/2/1 61/2/1
f 64/2/1 62/2/1 63/2/1
f 67/2/1 66/2/1 65/2/1
f 68/2/1 66/2/1 67/2/1
f 71/2/1 70/2/1 69/2/1
f 72/2/1 70/2/1 71/2/1
f 75/2/1 74/2/1 73/2/1
f 76/2/1 74/2/1 75/2/1
f 79/2/1 78/2/1 77/2/1
f 80/2/1 78/2/1 79/2/1
f 83/2/1 82/2/1 81/2/1
f 84/2/1 82/2/1 83/2/1
f 89/2/1 86/2/1 85/2/1
f 90/2/1 86/2/1 89/2/1
f 91/2/1 88/2/1 87/2/1
f 92/2/1 88/2/1 91/2/1
f 95/2/1 94/2/1 93/2/1
f 96/2/1 94/2/1 95/2/1
f 101/2/1 98/2/1 97/2/1
f 102/2/1 98/2/1 101/2/1
f 103/2/1 100/2/1 99/2/1
f 104/2/1 100/2/1 103/2/1
f 105/2/2 106/2/2 107/2/2
f 107/2/2 106/2/2 108/2/2
f 109/2/2 110/2/2 111/2/2
f 111/2/2 110/2/2 112/2/2
f 113/2/2 114/2/2 115/2/2
f 115/2/2 114/2/2 116/2/2
f 117/2/2 118/2/2 119/2/2
f 119/2/2 118/2/2 120/2/2
f 120/2/2 118/2/2 121/2/2
f 120/2/2 121/2/2 122/2/2
f 122/2/2 121/2/2 123/2/2
f 124/2/2 125/2/2 126/2/2
f 126/2/2 125/2/2 127/2/2
f 128/2/2 129/2/2 130/2/2
f 130/2/2 129/2/2 131/2/2
f 132/2/2 133/2/2 134/2/2
f 134/2/2 133/2/2 135/2/2
f 136/2/2 137/2/2 138/2/2
f 138/2/2 137/2/2 139/2/2
f 140/2/2 141/2/2 142/2/2
f 142/2/2 141/2/2 143/2/2
f 144/2/2 145/2/2 148/2/2
f 148/2/2 145/2/2 149/2/2
f 146/2/2 147/2/2 150/2/2
f 150/2/2 147/2/2 151/2/2
f 152/2/2 153/2/2 154/2/2
f 154/2/2 153/2/2 155/2/2
f 156/2/2 157/2/2 158/2/2
f 158/2/2 157/2/2 159/2/2
f 160/2/2 161/2/2 162/2/2
f 162/2/2 161/2/2 163/2/2
f 164/2/2 165/2/2 166/2/2
f 166/2/2 165/2/2 167/2/2
f 168/2/2 169/2/2 170/2/2
f 170/2/2 169/2/2 171/2/2
f 172/2/2 173/2/2 174/2/2
f 174/2/2 173/2/2 175/2/2
f 176/2/2 177/2/2 180/2/2
f 180/2/2 177/2/2 181/2/2
f 178/2/2 179/2/2 182/2/2
f 182/2/2 179/2/2 183/2/2
f 184/2/2 185/2/2 186/2/2
f 186/2/2 185/2/2 187/2/2
f 188/2/2 189/2/2 190/2/2
f 190/2/2 189/2/2 191/2/2
f 192/2/2 193/2/2 196/2/2
f 196/2/2 193/2/2 197/2/2
f 194/2/2 195/2/2 198/2/2
f 198/2/2 195/2/2 199/2/2
f 200/2/2 201/2/2 202/2/2
f 202/2/2 201/2/2 203/2/2
f 204/2/2 205/2/2 206/2/2
f 206/2/2 205/2/2 207/2/2
f 208/1/2 209/1/2 210/1/2
f 210/1/2 209/1/2 211/1/2
f 214/1/3 213/1/3 212/1/3
f 215/1/3 213/1/3 214/1/3
f 218/2/3 217/2/3 216/2/3
f 219/2/3 217/2/3 218/2/3
f 222/2/3 221/2/3 220/2/3
f 223/2/3 221/2/3 222/2/3
f 226/2/3 225/2/3 224/2/3
f 227/2/3 225/2/3 226/2/3
f 230/2/3 229/2/3 228/2/3
f 231/2/3 229/2/3 230/2/3
f 233/2/3 232/2/3 231/2/3
f 234/2/3 232/2/3 233/2/3
f 237/2/3 236/2/3 235/2/3
f 238/2/3 236/2/3 237/2/3
f 241/2/3 240/2/3 239/2/3
f 242/2/3 240/2/3 241/2/3
f 245/2/3 244/2/3 243/2/3
f 246/2/3 244/2/3 245/2/3
f 249/2/3 248/2/3 247/2/3
f 250/2/3 248/2/3 249/2/3
f 253/2/3 252/2/3 251/2/3
f 254/2/3 252/2/3 253/2/3
f 257/2/3 256/2/3 255/2/3
f 258/2/3 256/2/3 257/2/3
f 261/2/3 260/2/3 259/2/3
f 262/2/3 260/2/3 261/2/3
f 265/2/3 264/2/3 263/2/3
f 266/2/3 264/2/3 265/2/3
f 269/2/3 268/2/3 267/2/3
f 270/2/3 268/2/3 269/2/3
f 273/2/3 272/2/3 271/2/3
f 274/2/3 272/2/3 273/2/3
f 277/2/3 276/2/3 275/2/3
f 278/2/3 276/2/3 277/2/3
f 281/2/3 280/2/3 279/2/3
f 282/2/3 280/2/3 281/2/3
f 285/2/3 284/2/3 283/2/3
f 286/2/3 284/2/3 285/2/3
f 290/2/3 288/2/3 287/2/3
f 290/2/3 289/2/3 288/2/3
f 291/2/3 289/2/3 290/2/3
f 292/2/3 289/2/3 291/2/3
f 295/2/3 294/2/3 293/2/3
f 296/2/3 294/2/3 295/2/3
f 299/2/3 298/2/3 297/2/3
f 300/2/3 298/2/3 299/2/3
f 303/2/3 302/2/3 301/2/3
f 304/2/3 302/2/3 303/2/3
f 307/2/3 306/2/3 305/2/3
f 308/2/3 306/2/3 307/2/3
f 311/2/3 310/2/3 309/2/3
f 312/2/3 310/2/3 311/2/3
f 315/2/3 314/2/3 313/2/3
f 316/2/3 314/2/3 315/2/3
f 319/2/3 318/2/3 317/2/3
f 320/2/3 318/2/3 319/2/3
f 321/2/4 322/2/4 323/2/4
f 323/2/4 322/2/4 324/2/4
f 325/2/4 326/2/4 327/2/4
f 327/2/4 326/2/4 328/2/4
f 329/2/4 330/2/4 331/2/4
f 329/2/4 331/2/4 333/2/4
f 331/2/4 332/2/4 333/2/4
f 333/2/4 332/2/4 334/2/4
f 334/2/4 332/2/4 335/2/4
f 336/2/4 337/2/4 338/2/4
f 338/2/4 337/2/4 339/2/4
f 340/2/4 341/2/4 342/2/4
f 342/2/4 341/2/4 343/2/4
f 344/2/4 345/2/4 346/2/4
f 346/2/4 345/2/4 347/2/4
f 348/2/4 349/2/4 350/2/4
f 350/2/4 349/2/4 351/2/4
f 352/2/4 353/2/4 354/2/4
f 354/2/4 353/2/4 355/2/4
f 356/2/4 357/2/4 358/2/4
f 358/2/4 357/2/4 359/2/4
f 360/2/4 361/2/4 362/2/4
f 362/2/4 361/2/4 363/2/4
f 364/2/4 365/2/4 366/2/4
f 366/2/4 365/2/4 367/2/4
f 368/2/4 369/2/4 370/2/4
f 370/2/4 369/2/4 371/2/4
f 372/2/4 373/2/4 374/2/4
f 374/2/4 373/2/4 375/2/4
f 376/2/4 377/2/4 378/2/4
f 378/2/4 377/2/4 379/2/4
f 380/2/4 381/2/4 382/2/4
f 382/2/4 381/2/4 383/2/4
f 384/2/4 385/2/4 386/2/4
f 386/2/4 385/2/4 387/2/4
f 388/2/4 389/2/4 390/2/4
f 390/2/4 389/2/4 391/2/4
f 388/2/4 390/2/4 392/2/4
f 392/2/4 390/2/4 393/2/4
f 394/2/4 395/2/4 396/2/4
f 396/2/4 395/2/4 397/2/4
f 398/2/4 399/2/4 400/2/4
f 400/2/4 399/2/4 401/2/4
f 402/2/4 403/2/4 404/2/4
f 404/2/4 403/2/4 405/2/4
f 406/2/4 407/2/4 408/2/4
f 408/2/4 407/2/4 409/2/4
f 410/2/4 411/2/4 412/2/4
f 412/2/4 411/2/4 413/2/4
f 414/2/4 415/2/4 416/2/4
f 416/2/4 415/2/4 417/2/4
f 418/1/4 419/1/4 420/1/4
f 420/1/4 419/1/4 421/1/4
f 424/1/5 423/1/5 422/1/5
f 425/1/5 423/1/5 424/1/5
f 426/1/6 427/1/6 428/1/6
f 428/1/6 427/1/6 429/1/6
f 429/1/6 427/1/6 430/1/6
f 430/1/6 427/1/6 431/1/6
f 426/1/6 428/1/6 432/1/6
f 426/1/6 432/1/6 434/1/6
f 432/1/6 433/1/6 434/1/6
f 434/1/6 433/1/6 435/1/6
f 426/1/6 434/1/6 436/1/6
f 435/1/6 433/1/6 438/1/6
f 438/1/6 433/1/6 439/1/6
f 431/1/6 427/1/6 440/1/6
f 440/1/6 427/1/6 441/1/6
f 436/1/6 437/1/6 442/1/6
f 431/1/6 440/1/6 443/1/6
f 443/1/6 440/1/6 444/1/6
f 441/1/6 427/1/6 445/1/6
f 445/1/6 427/1/6 446/1/6
f 446/1/6 427/1/6 447/1/6
f 447/1/6 427/1/6 448/1/6
f 446/1/6 447/1/6 451/1/6
f 451/1/6 447/1/6 452/1/6
f 449/1/6 450/1/6 453/1/6
f 448/1/6 427/1/6 456/1/6
f 455/1/6 456/1/6 458/1/6
f 453/1/6 454/1/6 459/1/6
f 459/1/6 454/1/6 460/1/6
f 457/1/6 458/1/6 461/1/6
f 453/1/6 459/1/6 462/1/6
f 462/1/6 459/1/6 463/1/6
f 460/1/6 461/1/6 464/1/6
f 453/1/6 462/1/6 465/1/6
f 465/1/6 462/1/6 466/1/6
f 463/1/6 464/1/6 467/1/6
f 449/1/6 453/1/6 468/1/6
f 453/1/6 465/1/6 468/1/6
f 468/1/6 465/1/6 469/1/6
f 466/1/6 467/1/6 471/1/6
f 449/1/6 468/1/6 472/1/6
f 472/1/6 468/1/6 473/1/6
f 470/1/6 471/1/6 475/1/6
f 449/1/6 472/1/6 476/1/6
f 476/1/6 472/1/6 477/1/6
f 474/1/6 475/1/6 479/1/6
f 449/1/6 476/1/6 480/1/6
f 480/1/6 476/1/6 481/1/6
f 478/1/6 479/1/6 483/1/6
f 483/1/6 479/1/6 484/1/6
f 442/1/6 443/1/6 485/1/6
f 449/1/6 480/1/6 486/1/6
f 486/1/6 480/1/6 487/1/6
f 482/1/6 483/1/6 488/1/6
f 488/1/6 483/1/6 489/1/6
f 484/1/6 479/1/6 490/1/6
f 485/1/6 486/1/6 491/1/6
f 489/1/6 490/1/6 492/1/6
f 485/1/6 491/1/6 493/1/6
f 491/1/6 492/1/6 493/1/6
f 436/1/6 442/1/6 493/1/6
f 426/1/6 436/1/6 493/1/6
f 442/1/6 485/1/6 493/1/6
f 493/1/6 492/1/6 494/1/6
f 426/1/6 493/1/6 495/1/6
f 494/1/6 492/1/6 497/1/6
f 497/1/6 492/1/6 498/1/6
f 495/1/6 496/1/6 499/1/6
f 498/1/6 492/1/6 500/1/6
f 492/1/6 490/1/6 501/1/6
f 500/1/6 492/1/6 501/1/6
f 499/1/6 500/1/6 502/1/6
f 501/1/6 490/1/6 503/1/6
f 490/1/6 479/1/6 504/1/6
f 467/1/6 464/1/6 504/1/6
f 503/1/6 490/1/6 504/1/6
f 471/1/6 467/1/6 504/1/6
f 475/1/6 471/1/6 504/1/6
f 479/1/6 475/1/6 504/1/6
f 502/1/6 503/1/6 505/1/6
f 504/1/6 464/1/6 506/1/6
f 458/1/6 456/1/6 507/1/6
f 461/1/6 458/1/6 507/1/6
f 506/1/6 464/1/6 507/1/6
f 464/1/6 461/1/6 507/1/6
f 505/1/6 506/1/6 508/1/6
f 507/1/6 456/1/6 509/1/6
f 456/1/6 427/1/6 510/1/6
f 509/1/6 456/1/6 510/1/6
f 508/1/6 509/1/6 511/1/6
f 510/1/6 427/1/6 512/1/6
f 499/1/6 502/1/6 513/1/6
f 511/1/6 512/1/6 513/1/6
f 502/1/6 505/1/6 513/1/6
f 508/1/6 511/1/6 513/1/6
f 505/1/6 508/1/6 513/1/6
f 495/1/6 499/1/6 513/1/6
f 426/1/6 495/1/6 513/1/6
f 512/1/6 427/1/6 514/1/6
f 513/1/6 512/1/6 514/1/6
f 515/2/6 516/2/6 517/2/6
f 515/2/6 517/2/6 519/2/6
f 517/2/6 518/2/6 519/2/6
f 519/2/6 518/2/6 520/2/6
f 521/2/6 522/2/6 523/2/6
f 523/2/6 522/2/6 524/2/6
f 524/2/6 522/2/6 525/2/6
f 520/2/6 518/2/6 526/2/6
f 526/2/6 518/2/6 527/2/6
f 524/2/6 525/2/6 530/2/6
f 525/2/6 526/2/6 530/2/6
f 530/2/6 526/2/6 531/2/6
f 528/2/6 529/2/6 533/2/6
f 533/2/6 529/2/6 534/2/6
f 532/2/6 533/2/6 538/2/6
f 534/2/6 535/2/6 538/2/6
f 533/2/6 534/2/6 538/2/6
f 538/2/6 535/2/6 539/2/6
f 539/2/6 535/2/6 540/2/6
f 536/2/6 537/2/6 541/2/6
f 539/2/6 540/2/6 542/2/6
f 540/2/6 541/2/6 542/2/6
f 542/2/6 541/2/6 543/2/6
f 541/2/6 537/2/6 544/2/6
f 543/2/6 541/2/6 544/2/6
f 544/2/6 537/2/6 545/2/6
f 543/2/6 544/2/6 546/2/6
f 546/2/6 544/2/6 547/2/6
f 543/2/6 546/2/6 549/2/6
f 549/2/6 546/2/6 550/2/6
f 548/2/6 549/2/6 552/2/6
f 552/2/6 549/2/6 553/2/6
f 551/2/6 552/2/6 555/2/6
f 555/2/6 552/2/6 556/2/6
f 554/2/6 555/2/6 558/2/6
f 558/2/6 555/2/6 559/2/6
f 559/2/6 555/2/6 560/2/6
f 557/2/6 558/2/6 562/2/6
f 558/2/6 559/2/6 562/2/6
f 562/2/6 559/2/6 563/2/6
f 563/2/6 559/2/6 564/2/6
f 561/2/6 562/2/6 566/2/6
f 562/2/6 563/2/6 566/2/6
f 566/2/6 563/2/6 567/2/6
f 567/2/6 563/2/6 568/2/6
f 565/2/6 566/2/6 570/2/6
f 566/2/6 567/2/6 570/2/6
f 570/2/6 567/2/6 571/2/6
f 571/2/6 567/2/6 572/2/6
f 532/2/6 538/2/6 574/2/6
f 574/2/6 538/2/6 575/2/6
f 569/2/6 570/2/6 576/2/6
f 570/2/6 571/2/6 576/2/6
f 576/2/6 571/2/6 577/2/6
f 572/2/6 573/2/6 578/2/6
f 578/2/6 573/2/6 579/2/6
f 576/2/6 577/2/6 580/2/6
f 577/2/6 578/2/6 580/2/6
f 580/2/6 578/2/6 581/2/6
f 582/2/6 583/2/6 584/2/6
f 584/2/6 583/2/6 585/2/6
f 585/2/6 583/2/6 586/2/6
f 586/2/6 587/2/6 588/2/6
f 585/2/6 586/2/6 588/2/6
f 588/2/6 587/2/6 589/2/6
f 589/2/6 590/2/6 591/2/6
f 591/2/6 590/2/6 592/2/6
f 592/2/6 593/2/6 594/2/6
f 594/2/6 593/2/6 595/2/6
f 595/2/6 596/2/6 597/2/6
f 597/2/6 596/2/6 598/2/6
f 598/2/6 599/2/6 600/2/6
f 600/2/6 599/2/6 601/2/6
f 602/2/6 603/2/6 604/2/6
f 604/2/6 603/2/6 605/2/6
f 606/2/6 607/2/6 608/2/6
f 608/2/6 607/2/6 609/2/6
