# MagicaVoxel @ Ephtracy

# group
g newPrototypeLevel-13

# material
mtllib newPrototypeLevel-13.mtl
usemtl palette

# normals
vn -1 0 0
vn 1 0 0
vn 0 0 1
vn 0 0 -1
vn 0 -1 0
vn 0 1 0

# texcoords
vt 0.767578 0.5
vt 0.873047 0.5
vt 0.880859 0.5

# verts
v -62.5 0 62.5
v -62.5 0 -62.5
v -62.5 1 62.5
v -62.5 1 -62.5
v -16.5 1 10.5
v -16.5 1 9.5
v -16.5 1 -20.5
v -16.5 1 -21.5
v -16.5 2 10.5
v -16.5 2 9.5
v -16.5 2 -20.5
v -16.5 2 -21.5
v -14.5 1 9.5
v -14.5 1 8.5
v -14.5 2 9.5
v -14.5 2 8.5
v -9.5 1 -21.5
v -9.5 1 -22.5
v -9.5 2 -21.5
v -9.5 2 -22.5
v -6.5 1 32.5
v -6.5 1 27.5
v -6.5 2 32.5
v -6.5 2 27.5
v -5.5 1 27.5
v -5.5 1 9.5
v -5.5 2 27.5
v -5.5 2 9.5
v -5.5 2 8.5
v -5.5 3 9.5
v -5.5 3 8.5
v -4.5 1 8.5
v -4.5 1 -2.5
v -4.5 2 8.5
v -4.5 2 -2.5
v -3.5 1 9.5
v -3.5 1 8.5
v -3.5 1 -2.5
v -3.5 1 -3.5
v -3.5 2 9.5
v -3.5 2 8.5
v -3.5 2 -2.5
v -3.5 3 -2.5
v -3.5 3 -3.5
v -1.5 1 -22.5
v -1.5 1 -23.5
v -1.5 2 -22.5
v -1.5 2 -23.5
v -0.5 1 -1.5
v -0.5 1 -2.5
v -0.5 2 -1.5
v -0.5 2 -2.5
v 2.5 1 -0.5
v 2.5 1 -1.5
v 2.5 2 -0.5
v 2.5 2 -1.5
v 3.5 1 0.5
v 3.5 1 -0.5
v 3.5 2 0.5
v 3.5 2 -0.5
v 4.5 1 -1.5
v 4.5 1 -2.5
v 4.5 2 -1.5
v 4.5 2 -2.5
v 5.5 1 -23.5
v 5.5 1 -24.5
v 5.5 2 -23.5
v 5.5 2 -24.5
v 6.5 1 1.5
v 6.5 1 0.5
v 6.5 2 1.5
v 6.5 2 0.5
v 7.5 1 7.5
v 7.5 1 6.5
v 7.5 2 7.5
v 7.5 2 6.5
v 8.5 1 2.5
v 8.5 1 1.5
v 8.5 2 2.5
v 8.5 2 1.5
v 11.5 1 3.5
v 11.5 1 2.5
v 11.5 2 3.5
v 11.5 2 2.5
v 14.5 1 4.5
v 14.5 1 3.5
v 14.5 1 -24.5
v 14.5 1 -25.5
v 14.5 2 4.5
v 14.5 2 3.5
v 14.5 2 -24.5
v 14.5 2 -25.5
v 16.5 1 6.5
v 16.5 1 4.5
v 16.5 2 6.5
v 16.5 2 4.5
v 18.5 1 8.5
v 18.5 1 7.5
v 18.5 1 -25.5
v 18.5 1 -26.5
v 18.5 2 8.5
v 18.5 2 7.5
v 18.5 2 -25.5
v 18.5 2 -26.5
v -13.5 1 10.5
v -13.5 1 9.5
v -13.5 2 10.5
v -13.5 2 9.5
v -8.5 1 -20.5
v -8.5 1 -21.5
v -8.5 2 -20.5
v -8.5 2 -21.5
v -5.5 1 32.5
v -5.5 1 28.5
v -5.5 2 32.5
v -5.5 2 28.5
v -4.5 1 28.5
v -4.5 1 8.5
v -4.5 2 28.5
v -4.5 2 9.5
v -4.5 2 8.5
v -4.5 3 9.5
v -4.5 3 8.5
v -3.5 1 7.5
v -3.5 1 -2.5
v -3.5 2 7.5
v -3.5 2 -2.5
v -2.5 1 9.5
v -2.5 1 8.5
v -2.5 2 9.5
v -2.5 2 8.5
v -1.5 1 -21.5
v -1.5 1 -22.5
v -1.5 2 -21.5
v -1.5 2 -22.5
v -0.5 2 -2.5
v -0.5 2 -3.5
v -0.5 3 -2.5
v -0.5 3 -3.5
v 3.5 1 -1.5
v 3.5 1 -2.5
v 3.5 2 -1.5
v 3.5 2 -2.5
v 4.5 1 -0.5
v 4.5 1 -1.5
v 4.5 1 -2.5
v 4.5 1 -3.5
v 4.5 2 -0.5
v 4.5 2 -1.5
v 4.5 2 -2.5
v 4.5 2 -3.5
v 5.5 1 -22.5
v 5.5 1 -23.5
v 5.5 2 -22.5
v 5.5 2 -23.5
v 6.5 1 -1.5
v 6.5 1 -2.5
v 6.5 2 -1.5
v 6.5 2 -2.5
v 7.5 1 0.5
v 7.5 1 -0.5
v 7.5 2 0.5
v 7.5 2 -0.5
v 8.5 1 8.5
v 8.5 1 7.5
v 8.5 2 8.5
v 8.5 2 7.5
v 9.5 1 1.5
v 9.5 1 0.5
v 9.5 2 1.5
v 9.5 2 0.5
v 11.5 1 2.5
v 11.5 1 1.5
v 11.5 2 2.5
v 11.5 2 1.5
v 14.5 1 3.5
v 14.5 1 2.5
v 14.5 1 -23.5
v 14.5 1 -24.5
v 14.5 2 3.5
v 14.5 2 2.5
v 14.5 2 -23.5
v 14.5 2 -24.5
v 16.5 1 4.5
v 16.5 1 3.5
v 16.5 2 4.5
v 16.5 2 3.5
v 17.5 1 5.5
v 17.5 1 4.5
v 17.5 2 5.5
v 17.5 2 4.5
v 18.5 1 6.5
v 18.5 1 5.5
v 18.5 1 -24.5
v 18.5 1 -25.5
v 18.5 2 6.5
v 18.5 2 5.5
v 18.5 2 -24.5
v 18.5 2 -25.5
v 19.5 1 8.5
v 19.5 1 6.5
v 19.5 2 8.5
v 19.5 2 6.5
v 20.5 1 -25.5
v 20.5 1 -26.5
v 20.5 2 -25.5
v 20.5 2 -26.5
v 62.5 0 62.5
v 62.5 0 -62.5
v 62.5 1 62.5
v 62.5 1 -62.5
v -62.5 0 62.5
v -62.5 1 62.5
v 62.5 0 62.5
v 62.5 1 62.5
v -6.5 1 32.5
v -6.5 2 32.5
v -5.5 1 32.5
v -5.5 2 32.5
v -5.5 1 28.5
v -5.5 2 28.5
v -4.5 1 28.5
v -4.5 2 28.5
v -16.5 1 10.5
v -16.5 2 10.5
v -13.5 1 10.5
v -13.5 2 10.5
v -13.5 1 9.5
v -13.5 2 9.5
v -5.5 1 9.5
v -5.5 2 9.5
v -5.5 3 9.5
v -4.5 2 9.5
v -4.5 3 9.5
v -3.5 1 9.5
v -3.5 2 9.5
v -2.5 1 9.5
v -2.5 2 9.5
v -4.5 1 8.5
v -4.5 2 8.5
v -3.5 1 8.5
v -3.5 2 8.5
v -2.5 1 8.5
v -2.5 2 8.5
v 8.5 1 8.5
v 8.5 2 8.5
v 18.5 1 8.5
v 18.5 2 8.5
v 19.5 1 8.5
v 19.5 2 8.5
v 8.5 1 7.5
v 8.5 2 7.5
v 18.5 1 7.5
v 18.5 2 7.5
v 14.5 1 4.5
v 14.5 2 4.5
v 16.5 1 4.5
v 16.5 2 4.5
v 11.5 1 3.5
v 11.5 2 3.5
v 14.5 1 3.5
v 14.5 2 3.5
v 8.5 1 2.5
v 8.5 2 2.5
v 11.5 1 2.5
v 11.5 2 2.5
v 6.5 1 1.5
v 6.5 2 1.5
v 8.5 1 1.5
v 8.5 2 1.5
v 3.5 1 0.5
v 3.5 2 0.5
v 6.5 1 0.5
v 6.5 2 0.5
v 2.5 1 -0.5
v 2.5 2 -0.5
v 3.5 1 -0.5
v 3.5 2 -0.5
v -0.5 1 -1.5
v -0.5 2 -1.5
v 2.5 1 -1.5
v 2.5 2 -1.5
v 4.5 1 -1.5
v 4.5 2 -1.5
v 6.5 1 -1.5
v 6.5 2 -1.5
v -3.5 1 -2.5
v -3.5 2 -2.5
v -3.5 3 -2.5
v -0.5 1 -2.5
v -0.5 2 -2.5
v -0.5 3 -2.5
v 3.5 1 -2.5
v 3.5 2 -2.5
v 4.5 1 -2.5
v 4.5 2 -2.5
v -16.5 1 -20.5
v -16.5 2 -20.5
v -8.5 1 -20.5
v -8.5 2 -20.5
v -8.5 1 -21.5
v -8.5 2 -21.5
v -1.5 1 -21.5
v -1.5 2 -21.5
v -1.5 1 -22.5
v -1.5 2 -22.5
v 5.5 1 -22.5
v 5.5 2 -22.5
v 5.5 1 -23.5
v 5.5 2 -23.5
v 14.5 1 -23.5
v 14.5 2 -23.5
v 14.5 1 -24.5
v 14.5 2 -24.5
v 18.5 1 -24.5
v 18.5 2 -24.5
v 18.5 1 -25.5
v 18.5 2 -25.5
v 20.5 1 -25.5
v 20.5 2 -25.5
v -6.5 1 27.5
v -6.5 2 27.5
v -5.5 1 27.5
v -5.5 2 27.5
v -16.5 1 9.5
v -16.5 2 9.5
v -14.5 1 9.5
v -14.5 2 9.5
v -14.5 1 8.5
v -14.5 2 8.5
v -5.5 2 8.5
v -5.5 3 8.5
v -4.5 1 8.5
v -4.5 2 8.5
v -4.5 3 8.5
v -3.5 1 7.5
v -3.5 2 7.5
v 7.5 1 7.5
v 7.5 2 7.5
v 7.5 1 6.5
v 7.5 2 6.5
v 16.5 1 6.5
v 16.5 2 6.5
v 18.5 1 6.5
v 18.5 2 6.5
v 19.5 1 6.5
v 19.5 2 6.5
v 17.5 1 5.5
v 17.5 2 5.5
v 18.5 1 5.5
v 18.5 2 5.5
v 16.5 1 4.5
v 16.5 2 4.5
v 17.5 1 4.5
v 17.5 2 4.5
v 14.5 1 3.5
v 14.5 2 3.5
v 16.5 1 3.5
v 16.5 2 3.5
v 11.5 1 2.5
v 11.5 2 2.5
v 14.5 1 2.5
v 14.5 2 2.5
v 9.5 1 1.5
v 9.5 2 1.5
v 11.5 1 1.5
v 11.5 2 1.5
v 7.5 1 0.5
v 7.5 2 0.5
v 9.5 1 0.5
v 9.5 2 0.5
v 4.5 1 -0.5
v 4.5 2 -0.5
v 7.5 1 -0.5
v 7.5 2 -0.5
v 3.5 1 -1.5
v 3.5 2 -1.5
v 4.5 1 -1.5
v 4.5 2 -1.5
v -4.5 1 -2.5
v -4.5 2 -2.5
v -3.5 1 -2.5
v -3.5 2 -2.5
v 4.5 1 -2.5
v 4.5 2 -2.5
v 6.5 1 -2.5
v 6.5 2 -2.5
v -3.5 1 -3.5
v -3.5 3 -3.5
v -0.5 2 -3.5
v -0.5 3 -3.5
v 4.5 1 -3.5
v 4.5 2 -3.5
v -16.5 1 -21.5
v -16.5 2 -21.5
v -9.5 1 -21.5
v -9.5 2 -21.5
v -9.5 1 -22.5
v -9.5 2 -22.5
v -1.5 1 -22.5
v -1.5 2 -22.5
v -1.5 1 -23.5
v -1.5 2 -23.5
v 5.5 1 -23.5
v 5.5 2 -23.5
v 5.5 1 -24.5
v 5.5 2 -24.5
v 14.5 1 -24.5
v 14.5 2 -24.5
v 14.5 1 -25.5
v 14.5 2 -25.5
v 18.5 1 -25.5
v 18.5 2 -25.5
v 18.5 1 -26.5
v 18.5 2 -26.5
v 20.5 1 -26.5
v 20.5 2 -26.5
v -62.5 0 -62.5
v -62.5 1 -62.5
v 62.5 0 -62.5
v 62.5 1 -62.5
v -62.5 0 62.5
v 62.5 0 62.5
v -6.5 0 32.5
v -5.5 0 32.5
v -5.5 0 28.5
v -4.5 0 28.5
v -6.5 0 27.5
v -5.5 0 27.5
v -16.5 0 10.5
v -13.5 0 10.5
v -16.5 0 9.5
v -14.5 0 9.5
v -13.5 0 9.5
v -5.5 0 9.5
v -3.5 0 9.5
v -2.5 0 9.5
v -14.5 0 8.5
v -4.5 0 8.5
v -3.5 0 8.5
v -2.5 0 8.5
v 8.5 0 8.5
v 18.5 0 8.5
v 19.5 0 8.5
v -3.5 0 7.5
v 7.5 0 7.5
v 8.5 0 7.5
v 18.5 0 7.5
v 7.5 0 6.5
v 16.5 0 6.5
v 18.5 0 6.5
v 19.5 0 6.5
v 17.5 0 5.5
v 18.5 0 5.5
v 14.5 0 4.5
v 16.5 0 4.5
v 17.5 0 4.5
v 11.5 0 3.5
v 14.5 0 3.5
v 16.5 0 3.5
v 8.5 0 2.5
v 11.5 0 2.5
v 14.5 0 2.5
v 6.5 0 1.5
v 8.5 0 1.5
v 9.5 0 1.5
v 11.5 0 1.5
v 3.5 0 0.5
v 6.5 0 0.5
v 7.5 0 0.5
v 9.5 0 0.5
v 2.5 0 -0.5
v 3.5 0 -0.5
v 4.5 0 -0.5
v 7.5 0 -0.5
v -0.5 0 -1.5
v 2.5 0 -1.5
v 4.5 0 -1.5
v 6.5 0 -1.5
v -4.5 0 -2.5
v -3.5 0 -2.5
v -0.5 0 -2.5
v 4.5 0 -2.5
v 6.5 0 -2.5
v -3.5 0 -3.5
v 4.5 0 -3.5
v -16.5 0 -20.5
v -8.5 0 -20.5
v -16.5 0 -21.5
v -9.5 0 -21.5
v -8.5 0 -21.5
v -1.5 0 -21.5
v -9.5 0 -22.5
v -1.5 0 -22.5
v 5.5 0 -22.5
v -1.5 0 -23.5
v 5.5 0 -23.5
v 14.5 0 -23.5
v 5.5 0 -24.5
v 14.5 0 -24.5
v 18.5 0 -24.5
v 14.5 0 -25.5
v 18.5 0 -25.5
v 20.5 0 -25.5
v 18.5 0 -26.5
v 20.5 0 -26.5
v -62.5 0 -62.5
v 62.5 0 -62.5
v -62.5 1 62.5
v 62.5 1 62.5
v -6.5 1 32.5
v -5.5 1 32.5
v -5.5 1 28.5
v -4.5 1 28.5
v -6.5 1 27.5
v -5.5 1 27.5
v -16.5 1 10.5
v -13.5 1 10.5
v -16.5 1 9.5
v -14.5 1 9.5
v -13.5 1 9.5
v -5.5 1 9.5
v -3.5 1 9.5
v -2.5 1 9.5
v -14.5 1 8.5
v -4.5 1 8.5
v -3.5 1 8.5
v -2.5 1 8.5
v 8.5 1 8.5
v 18.5 1 8.5
v 19.5 1 8.5
v -3.5 1 7.5
v 7.5 1 7.5
v 8.5 1 7.5
v 18.5 1 7.5
v 7.5 1 6.5
v 16.5 1 6.5
v 18.5 1 6.5
v 19.5 1 6.5
v 17.5 1 5.5
v 18.5 1 5.5
v 14.5 1 4.5
v 16.5 1 4.5
v 17.5 1 4.5
v 11.5 1 3.5
v 14.5 1 3.5
v 16.5 1 3.5
v 8.5 1 2.5
v 11.5 1 2.5
v 14.5 1 2.5
v 6.5 1 1.5
v 8.5 1 1.5
v 9.5 1 1.5
v 11.5 1 1.5
v 3.5 1 0.5
v 6.5 1 0.5
v 7.5 1 0.5
v 9.5 1 0.5
v 2.5 1 -0.5
v 3.5 1 -0.5
v 4.5 1 -0.5
v 7.5 1 -0.5
v -0.5 1 -1.5
v 2.5 1 -1.5
v 3.5 1 -1.5
v 4.5 1 -1.5
v 6.5 1 -1.5
v -4.5 1 -2.5
v -3.5 1 -2.5
v -0.5 1 -2.5
v 3.5 1 -2.5
v 4.5 1 -2.5
v 6.5 1 -2.5
v -3.5 1 -3.5
v 4.5 1 -3.5
v -16.5 1 -20.5
v -8.5 1 -20.5
v -16.5 1 -21.5
v -9.5 1 -21.5
v -8.5 1 -21.5
v -1.5 1 -21.5
v -9.5 1 -22.5
v -1.5 1 -22.5
v 5.5 1 -22.5
v -1.5 1 -23.5
v 5.5 1 -23.5
v 14.5 1 -23.5
v 5.5 1 -24.5
v 14.5 1 -24.5
v 18.5 1 -24.5
v 14.5 1 -25.5
v 18.5 1 -25.5
v 20.5 1 -25.5
v 18.5 1 -26.5
v 20.5 1 -26.5
v -62.5 1 -62.5
v 62.5 1 -62.5
v -6.5 2 32.5
v -5.5 2 32.5
v -5.5 2 28.5
v -4.5 2 28.5
v -6.5 2 27.5
v -5.5 2 27.5
v -16.5 2 10.5
v -13.5 2 10.5
v -16.5 2 9.5
v -14.5 2 9.5
v -13.5 2 9.5
v -5.5 2 9.5
v -4.5 2 9.5
v -3.5 2 9.5
v -2.5 2 9.5
v -14.5 2 8.5
v -5.5 2 8.5
v -4.5 2 8.5
v -3.5 2 8.5
v -2.5 2 8.5
v 8.5 2 8.5
v 18.5 2 8.5
v 19.5 2 8.5
v -3.5 2 7.5
v 7.5 2 7.5
v 8.5 2 7.5
v 18.5 2 7.5
v 7.5 2 6.5
v 16.5 2 6.5
v 18.5 2 6.5
v 19.5 2 6.5
v 17.5 2 5.5
v 18.5 2 5.5
v 14.5 2 4.5
v 16.5 2 4.5
v 17.5 2 4.5
v 11.5 2 3.5
v 14.5 2 3.5
v 16.5 2 3.5
v 8.5 2 2.5
v 11.5 2 2.5
v 14.5 2 2.5
v 6.5 2 1.5
v 8.5 2 1.5
v 9.5 2 1.5
v 11.5 2 1.5
v 3.5 2 0.5
v 6.5 2 0.5
v 7.5 2 0.5
v 9.5 2 0.5
v 2.5 2 -0.5
v 3.5 2 -0.5
v 4.5 2 -0.5
v 7.5 2 -0.5
v -0.5 2 -1.5
v 2.5 2 -1.5
v 3.5 2 -1.5
v 4.5 2 -1.5
v 6.5 2 -1.5
v -4.5 2 -2.5
v -3.5 2 -2.5
v -0.5 2 -2.5
v 3.5 2 -2.5
v 4.5 2 -2.5
v 6.5 2 -2.5
v -0.5 2 -3.5
v 4.5 2 -3.5
v -16.5 2 -20.5
v -8.5 2 -20.5
v -16.5 2 -21.5
v -9.5 2 -21.5
v -8.5 2 -21.5
v -1.5 2 -21.5
v -9.5 2 -22.5
v -1.5 2 -22.5
v 5.5 2 -22.5
v -1.5 2 -23.5
v 5.5 2 -23.5
v 14.5 2 -23.5
v 5.5 2 -24.5
v 14.5 2 -24.5
v 18.5 2 -24.5
v 14.5 2 -25.5
v 18.5 2 -25.5
v 20.5 2 -25.5
v 18.5 2 -26.5
v 20.5 2 -26.5
v -5.5 3 9.5
v -4.5 3 9.5
v -5.5 3 8.5
v -4.5 3 8.5
v -3.5 3 -2.5
v -0.5 3 -2.5
v -3.5 3 -3.5
v -0.5 3 -3.5

# faces
f 3/1/1 2/1/1 1/1/1
f 4/1/1 2/1/1 3/1/1
f 9/3/1 6/3/1 5/3/1
f 10/3/1 6/3/1 9/3/1
f 11/3/1 8/3/1 7/3/1
f 12/3/1 8/3/1 11/3/1
f 15/3/1 14/3/1 13/3/1
f 16/3/1 14/3/1 15/3/1
f 19/3/1 18/3/1 17/3/1
f 20/3/1 18/3/1 19/3/1
f 23/3/1 22/3/1 21/3/1
f 24/3/1 22/3/1 23/3/1
f 27/3/1 26/3/1 25/3/1
f 28/3/1 26/3/1 27/3/1
f 30/3/1 29/3/1 28/3/1
f 31/3/1 29/3/1 30/3/1
f 34/3/1 33/3/1 32/3/1
f 35/3/1 33/3/1 34/3/1
f 40/3/1 37/3/1 36/3/1
f 41/3/1 37/3/1 40/3/1
f 42/3/1 39/3/1 38/3/1
f 43/3/1 39/3/1 42/3/1
f 44/3/1 39/3/1 43/3/1
f 47/3/1 46/3/1 45/3/1
f 48/3/1 46/3/1 47/3/1
f 51/3/1 50/3/1 49/3/1
f 52/3/1 50/3/1 51/3/1
f 55/3/1 54/3/1 53/3/1
f 56/3/1 54/3/1 55/3/1
f 59/3/1 58/3/1 57/3/1
f 60/3/1 58/3/1 59/3/1
f 63/3/1 62/3/1 61/3/1
f 64/3/1 62/3/1 63/3/1
f 67/3/1 66/3/1 65/3/1
f 68/3/1 66/3/1 67/3/1
f 71/3/1 70/3/1 69/3/1
f 72/3/1 70/3/1 71/3/1
f 75/3/1 74/3/1 73/3/1
f 76/3/1 74/3/1 75/3/1
f 79/3/1 78/3/1 77/3/1
f 80/3/1 78/3/1 79/3/1
f 83/3/1 82/3/1 81/3/1
f 84/3/1 82/3/1 83/3/1
f 89/3/1 86/3/1 85/3/1
f 90/3/1 86/3/1 89/3/1
f 91/3/1 88/3/1 87/3/1
f 92/3/1 88/3/1 91/3/1
f 95/3/1 94/3/1 93/3/1
f 96/3/1 94/3/1 95/3/1
f 101/3/1 98/3/1 97/3/1
f 102/3/1 98/3/1 101/3/1
f 103/3/1 100/3/1 99/3/1
f 104/3/1 100/3/1 103/3/1
f 105/3/2 106/3/2 107/3/2
f 107/3/2 106/3/2 108/3/2
f 109/3/2 110/3/2 111/3/2
f 111/3/2 110/3/2 112/3/2
f 113/3/2 114/3/2 115/3/2
f 115/3/2 114/3/2 116/3/2
f 117/3/2 118/3/2 119/3/2
f 119/3/2 118/3/2 120/3/2
f 120/3/2 118/3/2 121/3/2
f 120/3/2 121/3/2 122/3/2
f 122/3/2 121/3/2 123/3/2
f 124/3/2 125/3/2 126/3/2
f 126/3/2 125/3/2 127/3/2
f 128/3/2 129/3/2 130/3/2
f 130/3/2 129/3/2 131/3/2
f 132/3/2 133/3/2 134/3/2
f 134/3/2 133/3/2 135/3/2
f 136/3/2 137/3/2 138/3/2
f 138/3/2 137/3/2 139/3/2
f 140/3/2 141/3/2 142/3/2
f 142/3/2 141/3/2 143/3/2
f 144/3/2 145/3/2 148/3/2
f 148/3/2 145/3/2 149/3/2
f 146/3/2 147/3/2 150/3/2
f 150/3/2 147/3/2 151/3/2
f 152/3/2 153/3/2 154/3/2
f 154/3/2 153/3/2 155/3/2
f 156/3/2 157/3/2 158/3/2
f 158/3/2 157/3/2 159/3/2
f 160/3/2 161/3/2 162/3/2
f 162/3/2 161/3/2 163/3/2
f 164/3/2 165/3/2 166/3/2
f 166/3/2 165/3/2 167/3/2
f 168/3/2 169/3/2 170/3/2
f 170/3/2 169/3/2 171/3/2
f 172/3/2 173/3/2 174/3/2
f 174/3/2 173/3/2 175/3/2
f 176/3/2 177/3/2 180/3/2
f 180/3/2 177/3/2 181/3/2
f 178/3/2 179/3/2 182/3/2
f 182/3/2 179/3/2 183/3/2
f 184/3/2 185/3/2 186/3/2
f 186/3/2 185/3/2 187/3/2
f 188/3/2 189/3/2 190/3/2
f 190/3/2 189/3/2 191/3/2
f 192/3/2 193/3/2 196/3/2
f 196/3/2 193/3/2 197/3/2
f 194/3/2 195/3/2 198/3/2
f 198/3/2 195/3/2 199/3/2
f 200/3/2 201/3/2 202/3/2
f 202/3/2 201/3/2 203/3/2
f 204/3/2 205/3/2 206/3/2
f 206/3/2 205/3/2 207/3/2
f 208/1/2 209/1/2 210/1/2
f 210/1/2 209/1/2 211/1/2
f 214/1/3 213/1/3 212/1/3
f 215/1/3 213/1/3 214/1/3
f 218/3/3 217/3/3 216/3/3
f 219/3/3 217/3/3 218/3/3
f 222/3/3 221/3/3 220/3/3
f 223/3/3 221/3/3 222/3/3
f 226/3/3 225/3/3 224/3/3
f 227/3/3 225/3/3 226/3/3
f 230/3/3 229/3/3 228/3/3
f 231/3/3 229/3/3 230/3/3
f 233/3/3 232/3/3 231/3/3
f 234/3/3 232/3/3 233/3/3
f 237/3/3 236/3/3 235/3/3
f 238/3/3 236/3/3 237/3/3
f 241/3/3 240/3/3 239/3/3
f 242/3/3 240/3/3 241/3/3
f 245/3/3 244/3/3 243/3/3
f 246/3/3 244/3/3 245/3/3
f 249/3/3 248/3/3 247/3/3
f 250/3/3 248/3/3 249/3/3
f 253/3/3 252/3/3 251/3/3
f 254/3/3 252/3/3 253/3/3
f 257/3/3 256/3/3 255/3/3
f 258/3/3 256/3/3 257/3/3
f 261/3/3 260/3/3 259/3/3
f 262/3/3 260/3/3 261/3/3
f 265/3/3 264/3/3 263/3/3
f 266/3/3 264/3/3 265/3/3
f 269/3/3 268/3/3 267/3/3
f 270/3/3 268/3/3 269/3/3
f 273/3/3 272/3/3 271/3/3
f 274/3/3 272/3/3 273/3/3
f 277/3/3 276/3/3 275/3/3
f 278/3/3 276/3/3 277/3/3
f 281/3/3 280/3/3 279/3/3
f 282/3/3 280/3/3 281/3/3
f 285/3/3 284/3/3 283/3/3
f 286/3/3 284/3/3 285/3/3
f 290/3/3 288/3/3 287/3/3
f 290/3/3 289/3/3 288/3/3
f 291/3/3 289/3/3 290/3/3
f 292/3/3 289/3/3 291/3/3
f 295/3/3 294/3/3 293/3/3
f 296/3/3 294/3/3 295/3/3
f 299/3/3 298/3/3 297/3/3
f 300/3/3 298/3/3 299/3/3
f 303/3/3 302/3/3 301/3/3
f 304/3/3 302/3/3 303/3/3
f 307/3/3 306/3/3 305/3/3
f 308/3/3 306/3/3 307/3/3
f 311/3/3 310/3/3 309/3/3
f 312/3/3 310/3/3 311/3/3
f 315/3/3 314/3/3 313/3/3
f 316/3/3 314/3/3 315/3/3
f 319/3/3 318/3/3 317/3/3
f 320/3/3 318/3/3 319/3/3
f 321/3/4 322/3/4 323/3/4
f 323/3/4 322/3/4 324/3/4
f 325/3/4 326/3/4 327/3/4
f 327/3/4 326/3/4 328/3/4
f 329/3/4 330/3/4 331/3/4
f 329/3/4 331/3/4 333/3/4
f 331/3/4 332/3/4 333/3/4
f 333/3/4 332/3/4 334/3/4
f 334/3/4 332/3/4 335/3/4
f 336/3/4 337/3/4 338/3/4
f 338/3/4 337/3/4 339/3/4
f 340/3/4 341/3/4 342/3/4
f 342/3/4 341/3/4 343/3/4
f 344/3/4 345/3/4 346/3/4
f 346/3/4 345/3/4 347/3/4
f 348/3/4 349/3/4 350/3/4
f 350/3/4 349/3/4 351/3/4
f 352/3/4 353/3/4 354/3/4
f 354/3/4 353/3/4 355/3/4
f 356/3/4 357/3/4 358/3/4
f 358/3/4 357/3/4 359/3/4
f 360/3/4 361/3/4 362/3/4
f 362/3/4 361/3/4 363/3/4
f 364/3/4 365/3/4 366/3/4
f 366/3/4 365/3/4 367/3/4
f 368/3/4 369/3/4 370/3/4
f 370/3/4 369/3/4 371/3/4
f 372/3/4 373/3/4 374/3/4
f 374/3/4 373/3/4 375/3/4
f 376/3/4 377/3/4 378/3/4
f 378/3/4 377/3/4 379/3/4
f 380/3/4 381/3/4 382/3/4
f 382/3/4 381/3/4 383/3/4
f 384/3/4 385/3/4 386/3/4
f 386/3/4 385/3/4 387/3/4
f 388/3/4 389/3/4 390/3/4
f 390/3/4 389/3/4 391/3/4
f 388/3/4 390/3/4 392/3/4
f 392/3/4 390/3/4 393/3/4
f 394/3/4 395/3/4 396/3/4
f 396/3/4 395/3/4 397/3/4
f 398/3/4 399/3/4 400/3/4
f 400/3/4 399/3/4 401/3/4
f 402/3/4 403/3/4 404/3/4
f 404/3/4 403/3/4 405/3/4
f 406/3/4 407/3/4 408/3/4
f 408/3/4 407/3/4 409/3/4
f 410/3/4 411/3/4 412/3/4
f 412/3/4 411/3/4 413/3/4
f 414/3/4 415/3/4 416/3/4
f 416/3/4 415/3/4 417/3/4
f 418/1/4 419/1/4 420/1/4
f 420/1/4 419/1/4 421/1/4
f 424/1/5 423/1/5 422/1/5
f 425/1/5 423/1/5 424/1/5
f 426/2/5 425/2/5 424/2/5
f 426/1/5 423/1/5 425/1/5
f 427/1/5 423/1/5 426/1/5
f 428/1/5 424/1/5 422/1/5
f 428/2/5 426/2/5 424/2/5
f 428/2/5 427/2/5 426/2/5
f 429/2/5 427/2/5 428/2/5
f 430/1/5 428/1/5 422/1/5
f 430/1/5 429/1/5 428/1/5
f 431/1/5 429/1/5 430/1/5
f 432/1/5 430/1/5 422/1/5
f 432/2/5 431/2/5 430/2/5
f 433/2/5 431/2/5 432/2/5
f 434/1/5 429/1/5 431/1/5
f 434/2/5 431/2/5 433/2/5
f 435/2/5 427/2/5 429/2/5
f 435/1/5 429/1/5 434/1/5
f 436/1/5 423/1/5 427/1/5
f 437/1/5 423/1/5 436/1/5
f 438/2/5 434/2/5 433/2/5
f 438/1/5 433/1/5 432/1/5
f 438/2/5 435/2/5 434/2/5
f 439/2/5 427/2/5 435/2/5
f 439/2/5 435/2/5 438/2/5
f 439/1/5 436/1/5 427/1/5
f 440/2/5 437/2/5 436/2/5
f 440/1/5 436/1/5 439/1/5
f 441/1/5 423/1/5 437/1/5
f 441/2/5 437/2/5 440/2/5
f 442/1/5 423/1/5 441/1/5
f 443/1/5 423/1/5 442/1/5
f 444/1/5 423/1/5 443/1/5
f 445/2/5 440/2/5 439/2/5
f 445/2/5 441/2/5 440/2/5
f 445/2/5 442/2/5 441/2/5
f 446/2/5 442/2/5 445/2/5
f 447/1/5 443/1/5 442/1/5
f 447/2/5 442/2/5 446/2/5
f 448/2/5 444/2/5 443/2/5
f 448/1/5 443/1/5 447/1/5
f 449/2/5 447/2/5 446/2/5
f 449/1/5 446/1/5 445/1/5
f 449/2/5 448/2/5 447/2/5
f 450/2/5 448/2/5 449/2/5
f 451/2/5 444/2/5 448/2/5
f 451/2/5 448/2/5 450/2/5
f 452/1/5 423/1/5 444/1/5
f 452/2/5 444/2/5 451/2/5
f 453/2/5 451/2/5 450/2/5
f 454/1/5 452/1/5 451/1/5
f 454/2/5 451/2/5 453/2/5
f 455/1/5 450/1/5 449/1/5
f 456/2/5 453/2/5 450/2/5
f 456/1/5 450/1/5 455/1/5
f 457/1/5 454/1/5 453/1/5
f 457/2/5 453/2/5 456/2/5
f 458/1/5 455/1/5 449/1/5
f 459/2/5 456/2/5 455/2/5
f 459/1/5 455/1/5 458/1/5
f 460/1/5 457/1/5 456/1/5
f 460/2/5 456/2/5 459/2/5
f 461/1/5 458/1/5 449/1/5
f 462/2/5 459/2/5 458/2/5
f 462/1/5 458/1/5 461/1/5
f 463/1/5 460/1/5 459/1/5
f 463/2/5 459/2/5 462/2/5
f 464/1/5 449/1/5 445/1/5
f 464/1/5 461/1/5 449/1/5
f 465/2/5 462/2/5 461/2/5
f 465/1/5 461/1/5 464/1/5
f 466/2/5 462/2/5 465/2/5
f 467/1/5 463/1/5 462/1/5
f 467/2/5 462/2/5 466/2/5
f 468/1/5 464/1/5 445/1/5
f 469/2/5 466/2/5 465/2/5
f 469/1/5 464/1/5 468/1/5
f 469/2/5 465/2/5 464/2/5
f 470/2/5 466/2/5 469/2/5
f 471/1/5 467/1/5 466/1/5
f 471/2/5 466/2/5 470/2/5
f 472/1/5 468/1/5 445/1/5
f 473/2/5 470/2/5 469/2/5
f 473/1/5 468/1/5 472/1/5
f 473/2/5 469/2/5 468/2/5
f 474/2/5 470/2/5 473/2/5
f 475/1/5 471/1/5 470/1/5
f 475/2/5 470/2/5 474/2/5
f 476/1/5 472/1/5 445/1/5
f 477/2/5 474/2/5 473/2/5
f 477/1/5 472/1/5 476/1/5
f 477/2/5 473/2/5 472/2/5
f 478/1/5 475/1/5 474/1/5
f 478/2/5 474/2/5 477/2/5
f 479/1/5 475/1/5 478/1/5
f 480/1/5 439/1/5 438/1/5
f 480/2/5 445/2/5 439/2/5
f 481/1/5 476/1/5 445/1/5
f 481/2/5 445/2/5 480/2/5
f 482/2/5 479/2/5 478/2/5
f 482/1/5 476/1/5 481/1/5
f 482/2/5 477/2/5 476/2/5
f 482/2/5 478/2/5 477/2/5
f 483/2/5 479/2/5 482/2/5
f 484/1/5 475/1/5 479/1/5
f 484/2/5 479/2/5 483/2/5
f 485/2/5 483/2/5 482/2/5
f 485/1/5 481/1/5 480/1/5
f 485/2/5 482/2/5 481/2/5
f 486/1/5 484/1/5 483/1/5
f 486/2/5 483/2/5 485/2/5
f 487/1/5 438/1/5 432/1/5
f 487/1/5 432/1/5 422/1/5
f 487/1/5 486/1/5 485/1/5
f 487/1/5 480/1/5 438/1/5
f 487/1/5 485/1/5 480/1/5
f 488/1/5 486/1/5 487/1/5
f 489/1/5 487/1/5 422/1/5
f 489/2/5 488/2/5 487/2/5
f 490/2/5 488/2/5 489/2/5
f 491/1/5 486/1/5 488/1/5
f 491/2/5 488/2/5 490/2/5
f 492/1/5 486/1/5 491/1/5
f 493/1/5 490/1/5 489/1/5
f 493/2/5 491/2/5 490/2/5
f 493/2/5 492/2/5 491/2/5
f 494/1/5 486/1/5 492/1/5
f 494/2/5 492/2/5 493/2/5
f 495/1/5 484/1/5 486/1/5
f 495/1/5 486/1/5 494/1/5
f 496/1/5 494/1/5 493/1/5
f 496/2/5 495/2/5 494/2/5
f 497/1/5 484/1/5 495/1/5
f 497/2/5 495/2/5 496/2/5
f 498/1/5 475/1/5 484/1/5
f 498/1/5 484/1/5 497/1/5
f 498/1/5 471/1/5 475/1/5
f 498/1/5 463/1/5 467/1/5
f 498/1/5 460/1/5 463/1/5
f 498/1/5 467/1/5 471/1/5
f 499/1/5 497/1/5 496/1/5
f 499/2/5 498/2/5 497/2/5
f 500/1/5 460/1/5 498/1/5
f 500/2/5 498/2/5 499/2/5
f 501/1/5 452/1/5 454/1/5
f 501/1/5 460/1/5 500/1/5
f 501/1/5 457/1/5 460/1/5
f 501/1/5 454/1/5 457/1/5
f 502/1/5 500/1/5 499/1/5
f 502/2/5 501/2/5 500/2/5
f 503/1/5 452/1/5 501/1/5
f 503/2/5 501/2/5 502/2/5
f 504/1/5 423/1/5 452/1/5
f 504/1/5 452/1/5 503/1/5
f 505/1/5 503/1/5 502/1/5
f 505/2/5 504/2/5 503/2/5
f 506/1/5 423/1/5 504/1/5
f 506/2/5 504/2/5 505/2/5
f 507/1/5 496/1/5 493/1/5
f 507/1/5 505/1/5 502/1/5
f 507/1/5 506/1/5 505/1/5
f 507/1/5 493/1/5 489/1/5
f 507/1/5 502/1/5 499/1/5
f 507/1/5 489/1/5 422/1/5
f 507/1/5 499/1/5 496/1/5
f 508/1/5 423/1/5 506/1/5
f 508/1/5 506/1/5 507/1/5
f 509/1/6 510/1/6 511/1/6
f 511/1/6 510/1/6 512/1/6
f 512/1/6 510/1/6 513/1/6
f 513/1/6 510/1/6 514/1/6
f 509/1/6 511/1/6 515/1/6
f 509/1/6 515/1/6 517/1/6
f 515/1/6 516/1/6 517/1/6
f 517/1/6 516/1/6 518/1/6
f 509/1/6 517/1/6 519/1/6
f 518/1/6 516/1/6 521/1/6
f 521/1/6 516/1/6 522/1/6
f 514/1/6 510/1/6 523/1/6
f 523/1/6 510/1/6 524/1/6
f 519/1/6 520/1/6 525/1/6
f 514/1/6 523/1/6 526/1/6
f 526/1/6 523/1/6 527/1/6
f 524/1/6 510/1/6 528/1/6
f 528/1/6 510/1/6 529/1/6
f 529/1/6 510/1/6 530/1/6
f 530/1/6 510/1/6 531/1/6
f 529/1/6 530/1/6 534/1/6
f 534/1/6 530/1/6 535/1/6
f 532/1/6 533/1/6 536/1/6
f 531/1/6 510/1/6 539/1/6
f 538/1/6 539/1/6 541/1/6
f 536/1/6 537/1/6 542/1/6
f 542/1/6 537/1/6 543/1/6
f 540/1/6 541/1/6 544/1/6
f 536/1/6 542/1/6 545/1/6
f 545/1/6 542/1/6 546/1/6
f 543/1/6 544/1/6 547/1/6
f 536/1/6 545/1/6 548/1/6
f 548/1/6 545/1/6 549/1/6
f 546/1/6 547/1/6 550/1/6
f 532/1/6 536/1/6 551/1/6
f 536/1/6 548/1/6 551/1/6
f 551/1/6 548/1/6 552/1/6
f 549/1/6 550/1/6 554/1/6
f 532/1/6 551/1/6 555/1/6
f 555/1/6 551/1/6 556/1/6
f 553/1/6 554/1/6 558/1/6
f 532/1/6 555/1/6 559/1/6
f 559/1/6 555/1/6 560/1/6
f 557/1/6 558/1/6 562/1/6
f 532/1/6 559/1/6 563/1/6
f 563/1/6 559/1/6 564/1/6
f 561/1/6 562/1/6 566/1/6
f 566/1/6 562/1/6 567/1/6
f 525/1/6 526/1/6 568/1/6
f 532/1/6 563/1/6 569/1/6
f 569/1/6 563/1/6 570/1/6
f 565/2/6 566/2/6 571/2/6
f 571/2/6 566/2/6 572/2/6
f 567/1/6 562/1/6 573/1/6
f 568/1/6 569/1/6 574/1/6
f 572/1/6 573/1/6 575/1/6
f 568/1/6 574/1/6 576/1/6
f 574/1/6 575/1/6 576/1/6
f 519/1/6 525/1/6 576/1/6
f 509/1/6 519/1/6 576/1/6
f 525/1/6 568/1/6 576/1/6
f 576/1/6 575/1/6 577/1/6
f 509/1/6 576/1/6 578/1/6
f 577/1/6 575/1/6 580/1/6
f 580/1/6 575/1/6 581/1/6
f 578/1/6 579/1/6 582/1/6
f 581/1/6 575/1/6 583/1/6
f 575/1/6 573/1/6 584/1/6
f 583/1/6 575/1/6 584/1/6
f 582/1/6 583/1/6 585/1/6
f 584/1/6 573/1/6 586/1/6
f 573/1/6 562/1/6 587/1/6
f 550/1/6 547/1/6 587/1/6
f 586/1/6 573/1/6 587/1/6
f 554/1/6 550/1/6 587/1/6
f 558/1/6 554/1/6 587/1/6
f 562/1/6 558/1/6 587/1/6
f 585/1/6 586/1/6 588/1/6
f 587/1/6 547/1/6 589/1/6
f 541/1/6 539/1/6 590/1/6
f 544/1/6 541/1/6 590/1/6
f 589/1/6 547/1/6 590/1/6
f 547/1/6 544/1/6 590/1/6
f 588/1/6 589/1/6 591/1/6
f 590/1/6 539/1/6 592/1/6
f 539/1/6 510/1/6 593/1/6
f 592/1/6 539/1/6 593/1/6
f 591/1/6 592/1/6 594/1/6
f 593/1/6 510/1/6 595/1/6
f 582/1/6 585/1/6 596/1/6
f 594/1/6 595/1/6 596/1/6
f 585/1/6 588/1/6 596/1/6
f 591/1/6 594/1/6 596/1/6
f 588/1/6 591/1/6 596/1/6
f 578/1/6 582/1/6 596/1/6
f 509/1/6 578/1/6 596/1/6
f 595/1/6 510/1/6 597/1/6
f 596/1/6 595/1/6 597/1/6
f 598/3/6 599/3/6 600/3/6
f 598/3/6 600/3/6 602/3/6
f 600/3/6 601/3/6 602/3/6
f 602/3/6 601/3/6 603/3/6
f 604/3/6 605/3/6 606/3/6
f 606/3/6 605/3/6 607/3/6
f 607/3/6 605/3/6 608/3/6
f 603/3/6 601/3/6 609/3/6
f 609/3/6 601/3/6 610/3/6
f 607/3/6 608/3/6 613/3/6
f 608/3/6 609/3/6 613/3/6
f 613/3/6 609/3/6 614/3/6
f 611/3/6 612/3/6 616/3/6
f 616/3/6 612/3/6 617/3/6
f 615/3/6 616/3/6 621/3/6
f 617/3/6 618/3/6 621/3/6
f 616/3/6 617/3/6 621/3/6
f 621/3/6 618/3/6 622/3/6
f 622/3/6 618/3/6 623/3/6
f 619/3/6 620/3/6 624/3/6
f 622/3/6 623/3/6 625/3/6
f 623/3/6 624/3/6 625/3/6
f 625/3/6 624/3/6 626/3/6
f 624/3/6 620/3/6 627/3/6
f 626/3/6 624/3/6 627/3/6
f 627/3/6 620/3/6 628/3/6
f 626/3/6 627/3/6 629/3/6
f 629/3/6 627/3/6 630/3/6
f 626/3/6 629/3/6 632/3/6
f 632/3/6 629/3/6 633/3/6
f 631/3/6 632/3/6 635/3/6
f 635/3/6 632/3/6 636/3/6
f 634/3/6 635/3/6 638/3/6
f 638/3/6 635/3/6 639/3/6
f 637/3/6 638/3/6 641/3/6
f 641/3/6 638/3/6 642/3/6
f 642/3/6 638/3/6 643/3/6
f 640/3/6 641/3/6 645/3/6
f 641/3/6 642/3/6 645/3/6
f 645/3/6 642/3/6 646/3/6
f 646/3/6 642/3/6 647/3/6
f 644/3/6 645/3/6 649/3/6
f 645/3/6 646/3/6 649/3/6
f 649/3/6 646/3/6 650/3/6
f 650/3/6 646/3/6 651/3/6
f 648/3/6 649/3/6 653/3/6
f 649/3/6 650/3/6 653/3/6
f 653/3/6 650/3/6 654/3/6
f 654/3/6 650/3/6 655/3/6
f 615/3/6 621/3/6 657/3/6
f 657/3/6 621/3/6 658/3/6
f 652/3/6 653/3/6 659/3/6
f 653/3/6 654/3/6 659/3/6
f 659/3/6 654/3/6 660/3/6
f 655/3/6 656/3/6 661/3/6
f 661/3/6 656/3/6 662/3/6
f 659/3/6 660/3/6 663/3/6
f 660/3/6 661/3/6 663/3/6
f 663/3/6 661/3/6 664/3/6
f 665/3/6 666/3/6 667/3/6
f 667/3/6 666/3/6 668/3/6
f 668/3/6 666/3/6 669/3/6
f 669/3/6 670/3/6 671/3/6
f 668/3/6 669/3/6 671/3/6
f 671/3/6 670/3/6 672/3/6
f 672/3/6 673/3/6 674/3/6
f 674/3/6 673/3/6 675/3/6
f 675/3/6 676/3/6 677/3/6
f 677/3/6 676/3/6 678/3/6
f 678/3/6 679/3/6 680/3/6
f 680/3/6 679/3/6 681/3/6
f 681/3/6 682/3/6 683/3/6
f 683/3/6 682/3/6 684/3/6
f 685/3/6 686/3/6 687/3/6
f 687/3/6 686/3/6 688/3/6
f 689/3/6 690/3/6 691/3/6
f 691/3/6 690/3/6 692/3/6
