# MagicaVoxel @ Ephtracy

# group
g chr_old x15

# material
mtllib chr_old x15.mtl
usemtl palette

# normals
vn -1 0 0
vn 1 0 0
vn 0 0 1
vn 0 0 -1
vn 0 -1 0
vn 0 1 0

# texcoords
vt 0.00195313 0.5
vt 0.0332031 0.5
vt 0.0605469 0.5
vt 0.142578 0.5
vt 0.310547 0.5
vt 0.365234 0.5
vt 0.521484 0.5
vt 0.533203 0.5
vt 0.611328 0.5
vt 0.634766 0.5
vt 0.646484 0.5
vt 0.978516 0.5
vt 0.982422 0.5
vt 0.986328 0.5
vt 0.994141 0.5

# verts
v -4 5 2.5
v -4 5 1.5
v -4 6 2.5
v -4 6 1.5
v -4 6 -0.5
v -4 8 1.5
v -4 8 -0.5
v -3 1 2.5
v -3 1 -3.5
v -3 5 3.5
v -3 5 2.5
v -3 5 1.5
v -3 6 3.5
v -3 6 2.5
v -3 6 1.5
v -3 6 -0.5
v -3 8 1.5
v -3 8 -0.5
v -3 9 2.5
v -3 9 -3.5
v -3 11 3.5
v -3 11 2.5
v -3 13 3.5
v -3 13 2.5
v -3 15 2.5
v -3 15 -3.5
v -2 1 3.5
v -2 1 2.5
v -2 4 3.5
v -2 4 2.5
v -2 5 3.5
v -2 5 2.5
v -2 6 3.5
v -2 6 2.5
v -2 9 3.5
v -2 9 2.5
v -2 15 1.5
v -2 15 -2.5
v -2 16 1.5
v -2 16 -2.5
v -1 9 3.5
v -1 9 2.5
v -1 10 3.5
v -1 10 2.5
v 2 5 -3.5
v 2 5 -4.5
v 2 6 -3.5
v 2 6 -4.5
v 2 11 3.5
v 2 11 2.5
v 2 13 3.5
v 2 13 2.5
v -1 1 3.5
v -1 1 2.5
v -1 4 3.5
v -1 4 2.5
v -1 5 3.5
v -1 5 2.5
v -1 11 3.5
v -1 11 2.5
v -1 13 3.5
v -1 13 2.5
v 2 5 3.5
v 2 5 2.5
v 2 6 3.5
v 2 6 2.5
v 2 9 3.5
v 2 9 2.5
v 2 10 3.5
v 2 10 2.5
v 3 6 3.5
v 3 6 2.5
v 3 8 3.5
v 3 8 2.5
v 3 9 3.5
v 3 9 2.5
v 3 15 1.5
v 3 15 -2.5
v 3 16 1.5
v 3 16 -2.5
v 4 1 2.5
v 4 1 -2.5
v 4 1 -3.5
v 4 5 -2.5
v 4 5 -3.5
v 4 5 -4.5
v 4 6 0.5
v 4 6 -2.5
v 4 6 -3.5
v 4 6 -4.5
v 4 8 0.5
v 4 8 -2.5
v 4 9 2.5
v 4 9 -2.5
v 4 9 -3.5
v 4 11 3.5
v 4 11 2.5
v 4 13 3.5
v 4 13 2.5
v 4 15 2.5
v 4 15 -3.5
v 5 5 -2.5
v 5 5 -3.5
v 5 6 0.5
v 5 6 -2.5
v 5 6 -3.5
v 5 8 0.5
v 5 8 -2.5
v -3 5 3.5
v -3 6 3.5
v -3 11 3.5
v -3 13 3.5
v -2 1 3.5
v -2 4 3.5
v -2 5 3.5
v -2 6 3.5
v -2 9 3.5
v -2 11 3.5
v -2 13 3.5
v -1 1 3.5
v -1 4 3.5
v -1 5 3.5
v -1 6 3.5
v -1 9 3.5
v -1 10 3.5
v -1 11 3.5
v -1 13 3.5
v 2 5 3.5
v 2 6 3.5
v 2 8 3.5
v 2 9 3.5
v 2 10 3.5
v 2 11 3.5
v 2 13 3.5
v 3 6 3.5
v 3 8 3.5
v 3 9 3.5
v 3 11 3.5
v 3 13 3.5
v 4 11 3.5
v 4 13 3.5
v -4 5 2.5
v -4 6 2.5
v -3 1 2.5
v -3 5 2.5
v -3 6 2.5
v -3 9 2.5
v -3 11 2.5
v -3 13 2.5
v -3 15 2.5
v -2 1 2.5
v -2 4 2.5
v -2 5 2.5
v -2 6 2.5
v -2 9 2.5
v -2 10 2.5
v -2 11 2.5
v -2 13 2.5
v -2 15 2.5
v -1 1 2.5
v -1 4 2.5
v -1 5 2.5
v -1 9 2.5
v -1 10 2.5
v -1 11 2.5
v -1 13 2.5
v 0 1 2.5
v 0 4 2.5
v 2 4 2.5
v 2 5 2.5
v 2 6 2.5
v 2 9 2.5
v 2 10 2.5
v 2 11 2.5
v 2 13 2.5
v 2 14 2.5
v 2 15 2.5
v 3 6 2.5
v 3 8 2.5
v 3 9 2.5
v 3 10 2.5
v 3 11 2.5
v 3 13 2.5
v 3 14 2.5
v 3 15 2.5
v 4 1 2.5
v 4 9 2.5
v 4 11 2.5
v 4 13 2.5
v 4 15 2.5
v -4 6 1.5
v -4 8 1.5
v -3 6 1.5
v -3 8 1.5
v -2 15 1.5
v -2 16 1.5
v -1 15 1.5
v -1 16 1.5
v 2 15 1.5
v 3 15 1.5
v 3 16 1.5
v 4 6 0.5
v 4 8 0.5
v 5 6 0.5
v 5 8 0.5
v 4 5 -2.5
v 4 6 -2.5
v 5 5 -2.5
v 5 6 -2.5
v -4 5 1.5
v -4 6 1.5
v -3 5 1.5
v -3 6 1.5
v -4 6 -0.5
v -4 8 -0.5
v -3 6 -0.5
v -3 8 -0.5
v -2 15 -2.5
v -2 16 -2.5
v -1 15 -2.5
v -1 16 -2.5
v 3 15 -2.5
v 3 16 -2.5
v 4 6 -2.5
v 4 8 -2.5
v 5 6 -2.5
v 5 8 -2.5
v -3 1 -3.5
v -3 9 -3.5
v -3 15 -3.5
v -2 9 -3.5
v -2 15 -3.5
v 2 5 -3.5
v 2 6 -3.5
v 4 1 -3.5
v 4 5 -3.5
v 4 6 -3.5
v 4 9 -3.5
v 4 15 -3.5
v 5 5 -3.5
v 5 6 -3.5
v 2 5 -4.5
v 2 6 -4.5
v 4 5 -4.5
v 4 6 -4.5
v -2 1 3.5
v -1 1 3.5
v -3 1 2.5
v -2 1 2.5
v -1 1 2.5
v 0 1 2.5
v 4 1 2.5
v -2 1 1.5
v -1 1 1.5
v 0 1 1.5
v 2 1 0.5
v 3 1 0.5
v 2 1 -0.5
v 3 1 -0.5
v -2 1 -2.5
v 4 1 -2.5
v -3 1 -3.5
v 4 1 -3.5
v -3 5 3.5
v -2 5 3.5
v -1 5 3.5
v 2 5 3.5
v -4 5 2.5
v -3 5 2.5
v -2 5 2.5
v -1 5 2.5
v 2 5 2.5
v -4 5 1.5
v -3 5 1.5
v 4 5 -2.5
v 5 5 -2.5
v 2 5 -3.5
v 4 5 -3.5
v 5 5 -3.5
v 2 5 -4.5
v 4 5 -4.5
v 2 6 3.5
v 3 6 3.5
v 2 6 2.5
v 3 6 2.5
v -4 6 1.5
v -3 6 1.5
v 4 6 0.5
v 5 6 0.5
v -4 6 -0.5
v -3 6 -0.5
v 4 6 -2.5
v 5 6 -2.5
v -3 11 3.5
v -2 11 3.5
v -1 11 3.5
v 2 11 3.5
v 3 11 3.5
v 4 11 3.5
v -3 11 2.5
v -2 11 2.5
v -1 11 2.5
v 2 11 2.5
v 3 11 2.5
v 4 11 2.5
v -3 6 3.5
v -2 6 3.5
v -4 6 2.5
v -3 6 2.5
v -2 6 2.5
v -4 6 1.5
v -3 6 1.5
v 4 6 -2.5
v 5 6 -2.5
v 2 6 -3.5
v 4 6 -3.5
v 5 6 -3.5
v 2 6 -4.5
v 4 6 -4.5
v -4 8 1.5
v -3 8 1.5
v 4 8 0.5
v 5 8 0.5
v -4 8 -0.5
v -3 8 -0.5
v 4 8 -2.5
v 5 8 -2.5
v -2 9 3.5
v -1 9 3.5
v 2 9 3.5
v 3 9 3.5
v -2 9 2.5
v -1 9 2.5
v 2 9 2.5
v 3 9 2.5
v -1 10 3.5
v 2 10 3.5
v -1 10 2.5
v 2 10 2.5
v -3 13 3.5
v -2 13 3.5
v -1 13 3.5
v 2 13 3.5
v 3 13 3.5
v 4 13 3.5
v -3 13 2.5
v -2 13 2.5
v -1 13 2.5
v 2 13 2.5
v 3 13 2.5
v 4 13 2.5
v -3 15 2.5
v -2 15 2.5
v 2 15 2.5
v 3 15 2.5
v 4 15 2.5
v -2 15 1.5
v -1 15 1.5
v 2 15 1.5
v 3 15 1.5
v -2 15 -2.5
v -1 15 -2.5
v 3 15 -2.5
v -3 15 -3.5
v -2 15 -3.5
v 4 15 -3.5
v -2 16 1.5
v -1 16 1.5
v 3 16 1.5
v -2 16 -2.5
v -1 16 -2.5
v 3 16 -2.5

# faces
f 3/5/1 2/5/1 1/5/1
f 4/5/1 2/5/1 3/5/1
f 6/5/1 5/5/1 4/5/1
f 7/5/1 5/5/1 6/5/1
f 11/5/1 9/5/1 8/5/1
f 12/5/1 9/5/1 11/5/1
f 13/3/1 11/3/1 10/3/1
f 14/3/1 11/3/1 13/3/1
f 15/5/1 9/5/1 12/5/1
f 16/5/1 9/5/1 15/5/1
f 17/5/1 15/5/1 14/5/1
f 18/5/1 9/5/1 16/5/1
f 19/5/1 17/5/1 14/5/1
f 19/5/1 18/5/1 17/5/1
f 20/5/1 9/5/1 18/5/1
f 20/5/1 18/5/1 19/5/1
f 22/3/1 20/3/1 19/3/1
f 23/13/1 22/13/1 21/13/1
f 24/3/1 20/3/1 22/3/1
f 24/13/1 22/13/1 23/13/1
f 25/3/1 20/3/1 24/3/1
f 26/3/1 20/3/1 25/3/1
f 29/6/1 28/6/1 27/6/1
f 30/6/1 28/6/1 29/6/1
f 31/8/1 30/8/1 29/8/1
f 32/8/1 30/8/1 31/8/1
f 35/12/1 34/12/1 33/12/1
f 36/12/1 34/12/1 35/12/1
f 39/3/1 38/3/1 37/3/1
f 40/3/1 38/3/1 39/3/1
f 43/12/1 42/12/1 41/12/1
f 44/12/1 42/12/1 43/12/1
f 47/3/1 46/3/1 45/3/1
f 48/3/1 46/3/1 47/3/1
f 51/13/1 50/13/1 49/13/1
f 52/13/1 50/13/1 51/13/1
f 53/6/2 54/6/2 55/6/2
f 55/6/2 54/6/2 56/6/2
f 55/8/2 56/8/2 57/8/2
f 57/8/2 56/8/2 58/8/2
f 59/12/2 60/12/2 61/12/2
f 61/12/2 60/12/2 62/12/2
f 63/14/2 64/14/2 65/14/2
f 65/14/2 64/14/2 66/14/2
f 67/12/2 68/12/2 69/12/2
f 69/12/2 68/12/2 70/12/2
f 71/14/2 72/14/2 73/14/2
f 73/14/2 72/14/2 74/14/2
f 73/12/2 74/12/2 75/12/2
f 75/12/2 74/12/2 76/12/2
f 77/2/2 78/2/2 79/2/2
f 79/2/2 78/2/2 80/2/2
f 81/4/2 82/4/2 84/4/2
f 82/5/2 83/5/2 84/5/2
f 84/5/2 83/5/2 85/5/2
f 81/4/2 84/4/2 87/4/2
f 87/4/2 84/4/2 88/4/2
f 85/3/2 86/3/2 89/3/2
f 89/3/2 86/3/2 90/3/2
f 81/4/2 87/4/2 91/4/2
f 88/5/2 89/5/2 92/5/2
f 81/4/2 91/4/2 93/4/2
f 91/4/2 92/4/2 93/4/2
f 92/5/2 89/5/2 94/5/2
f 93/4/2 92/4/2 94/4/2
f 94/5/2 89/5/2 95/5/2
f 93/2/2 94/2/2 97/2/2
f 94/2/2 95/2/2 97/2/2
f 96/12/2 97/12/2 98/12/2
f 97/2/2 95/2/2 99/2/2
f 98/12/2 97/12/2 99/12/2
f 99/2/2 95/2/2 100/2/2
f 100/2/2 95/2/2 101/2/2
f 102/5/2 103/5/2 105/5/2
f 105/5/2 103/5/2 106/5/2
f 104/5/2 105/5/2 107/5/2
f 107/5/2 105/5/2 108/5/2
f 115/3/3 110/3/3 109/3/3
f 116/3/3 110/3/3 115/3/3
f 118/13/3 112/13/3 111/13/3
f 119/13/3 112/13/3 118/13/3
f 120/6/3 114/6/3 113/6/3
f 121/8/3 115/8/3 114/8/3
f 121/6/3 114/6/3 120/6/3
f 122/3/3 116/3/3 115/3/3
f 122/8/3 115/8/3 121/8/3
f 123/12/3 117/12/3 116/12/3
f 123/3/3 116/3/3 122/3/3
f 124/12/3 117/12/3 123/12/3
f 126/12/3 119/12/3 118/12/3
f 127/12/3 119/12/3 126/12/3
f 128/14/3 123/14/3 122/14/3
f 129/12/3 125/12/3 124/12/3
f 129/14/3 123/14/3 128/14/3
f 129/12/3 124/12/3 123/12/3
f 130/12/3 125/12/3 129/12/3
f 131/12/3 125/12/3 130/12/3
f 132/12/3 125/12/3 131/12/3
f 135/14/3 130/14/3 129/14/3
f 136/12/3 131/12/3 130/12/3
f 136/14/3 130/14/3 135/14/3
f 137/12/3 131/12/3 136/12/3
f 138/13/3 134/13/3 133/13/3
f 139/13/3 134/13/3 138/13/3
f 140/12/3 139/12/3 138/12/3
f 141/12/3 139/12/3 140/12/3
f 145/5/3 143/5/3 142/5/3
f 146/5/3 143/5/3 145/5/3
f 151/5/3 145/5/3 144/5/3
f 152/5/3 145/5/3 151/5/3
f 153/5/3 145/5/3 152/5/3
f 154/5/3 147/5/3 146/5/3
f 155/3/3 148/3/3 147/3/3
f 155/5/3 147/5/3 154/5/3
f 156/3/3 148/3/3 155/3/3
f 157/3/3 148/3/3 156/3/3
f 158/3/3 150/3/3 149/3/3
f 159/3/3 150/3/3 158/3/3
f 163/3/3 156/3/3 155/3/3
f 164/15/3 157/15/3 156/15/3
f 164/3/3 156/3/3 163/3/3
f 165/15/3 157/15/3 164/15/3
f 166/2/3 159/2/3 158/2/3
f 167/5/3 162/5/3 161/5/3
f 167/5/3 161/5/3 160/5/3
f 168/5/3 162/5/3 167/5/3
f 169/4/3 168/4/3 167/4/3
f 169/5/3 162/5/3 168/5/3
f 170/5/3 162/5/3 169/5/3
f 173/2/3 165/2/3 164/2/3
f 173/2/3 166/2/3 165/2/3
f 174/2/3 166/2/3 173/2/3
f 175/2/3 159/2/3 166/2/3
f 175/2/3 166/2/3 174/2/3
f 176/2/3 159/2/3 175/2/3
f 177/2/3 159/2/3 176/2/3
f 178/4/3 171/4/3 170/4/3
f 178/4/3 170/4/3 169/4/3
f 180/2/3 173/2/3 172/2/3
f 181/15/3 174/15/3 173/15/3
f 181/2/3 173/2/3 180/2/3
f 182/15/3 174/15/3 181/15/3
f 183/2/3 176/2/3 175/2/3
f 184/1/3 177/1/3 176/1/3
f 184/2/3 176/2/3 183/2/3
f 185/1/3 177/1/3 184/1/3
f 186/4/3 180/4/3 179/4/3
f 186/4/3 169/4/3 167/4/3
f 186/4/3 179/4/3 178/4/3
f 186/4/3 178/4/3 169/4/3
f 187/2/3 182/2/3 181/2/3
f 187/4/3 180/4/3 186/4/3
f 187/2/3 181/2/3 180/2/3
f 188/2/3 182/2/3 187/2/3
f 189/2/3 185/2/3 184/2/3
f 189/2/3 184/2/3 183/2/3
f 190/2/3 185/2/3 189/2/3
f 193/5/3 192/5/3 191/5/3
f 194/5/3 192/5/3 193/5/3
f 197/3/3 196/3/3 195/3/3
f 198/3/3 196/3/3 197/3/3
f 199/2/3 198/2/3 197/2/3
f 200/2/3 198/2/3 199/2/3
f 201/2/3 198/2/3 200/2/3
f 204/5/3 203/5/3 202/5/3
f 205/5/3 203/5/3 204/5/3
f 208/5/3 207/5/3 206/5/3
f 209/5/3 207/5/3 208/5/3
f 210/5/4 211/5/4 212/5/4
f 212/5/4 211/5/4 213/5/4
f 214/5/4 215/5/4 216/5/4
f 216/5/4 215/5/4 217/5/4
f 218/3/4 219/3/4 220/3/4
f 220/3/4 219/3/4 221/3/4
f 220/2/4 221/2/4 222/2/4
f 222/2/4 221/2/4 223/2/4
f 224/5/4 225/5/4 226/5/4
f 226/5/4 225/5/4 227/5/4
f 228/5/4 229/5/4 231/5/4
f 229/3/4 230/3/4 231/3/4
f 231/3/4 230/3/4 232/3/4
f 228/5/4 231/5/4 233/5/4
f 233/5/4 231/5/4 234/5/4
f 228/5/4 233/5/4 235/5/4
f 235/5/4 233/5/4 236/5/4
f 234/5/4 231/5/4 237/5/4
f 231/2/4 232/2/4 238/2/4
f 237/5/4 231/5/4 238/5/4
f 238/2/4 232/2/4 239/2/4
f 236/5/4 237/5/4 240/5/4
f 240/5/4 237/5/4 241/5/4
f 242/3/4 243/3/4 244/3/4
f 244/3/4 243/3/4 245/3/4
f 249/6/5 247/6/5 246/6/5
f 250/6/5 247/6/5 249/6/5
f 253/5/5 249/5/5 248/5/5
f 253/11/5 250/11/5 249/11/5
f 254/5/5 251/5/5 250/5/5
f 254/11/5 250/11/5 253/11/5
f 255/4/5 252/4/5 251/4/5
f 255/5/5 251/5/5 254/5/5
f 256/4/5 254/4/5 253/4/5
f 256/4/5 252/4/5 255/4/5
f 256/4/5 255/4/5 254/4/5
f 257/4/5 252/4/5 256/4/5
f 258/4/5 256/4/5 253/4/5
f 258/11/5 257/11/5 256/11/5
f 259/4/5 252/4/5 257/4/5
f 259/11/5 257/11/5 258/11/5
f 260/5/5 253/5/5 248/5/5
f 260/4/5 258/4/5 253/4/5
f 260/4/5 259/4/5 258/4/5
f 261/4/5 252/4/5 259/4/5
f 261/4/5 259/4/5 260/4/5
f 262/5/5 260/5/5 248/5/5
f 262/5/5 261/5/5 260/5/5
f 263/5/5 261/5/5 262/5/5
f 269/3/5 265/3/5 264/3/5
f 270/3/5 265/3/5 269/3/5
f 271/14/5 267/14/5 266/14/5
f 272/14/5 267/14/5 271/14/5
f 273/5/5 269/5/5 268/5/5
f 274/5/5 269/5/5 273/5/5
f 278/5/5 276/5/5 275/5/5
f 279/5/5 276/5/5 278/5/5
f 280/3/5 278/3/5 277/3/5
f 281/3/5 278/3/5 280/3/5
f 284/14/5 283/14/5 282/14/5
f 285/14/5 283/14/5 284/14/5
f 290/5/5 287/5/5 286/5/5
f 291/5/5 287/5/5 290/5/5
f 292/5/5 289/5/5 288/5/5
f 293/5/5 289/5/5 292/5/5
f 300/13/5 295/13/5 294/13/5
f 301/12/5 296/12/5 295/12/5
f 301/13/5 295/13/5 300/13/5
f 302/12/5 296/12/5 301/12/5
f 303/13/5 298/13/5 297/13/5
f 304/12/5 299/12/5 298/12/5
f 304/13/5 298/13/5 303/13/5
f 305/12/5 299/12/5 304/12/5
f 306/3/6 307/3/6 309/3/6
f 309/3/6 307/3/6 310/3/6
f 308/5/6 309/5/6 311/5/6
f 311/5/6 309/5/6 312/5/6
f 313/5/6 314/5/6 316/5/6
f 316/5/6 314/5/6 317/5/6
f 315/3/6 316/3/6 318/3/6
f 318/3/6 316/3/6 319/3/6
f 320/5/6 321/5/6 324/5/6
f 324/5/6 321/5/6 325/5/6
f 322/5/6 323/5/6 326/5/6
f 326/5/6 323/5/6 327/5/6
f 328/12/6 329/12/6 332/12/6
f 332/12/6 329/12/6 333/12/6
f 330/12/6 331/12/6 334/12/6
f 334/12/6 331/12/6 335/12/6
f 336/12/6 337/12/6 338/12/6
f 338/12/6 337/12/6 339/12/6
f 340/13/6 341/13/6 346/13/6
f 341/12/6 342/12/6 347/12/6
f 346/13/6 341/13/6 347/13/6
f 347/12/6 342/12/6 348/12/6
f 343/13/6 344/13/6 349/13/6
f 344/12/6 345/12/6 350/12/6
f 349/13/6 344/13/6 350/13/6
f 350/12/6 345/12/6 351/12/6
f 352/3/6 353/3/6 357/3/6
f 353/2/6 354/2/6 357/2/6
f 357/2/6 354/2/6 358/2/6
f 354/1/6 355/1/6 359/1/6
f 358/2/6 354/2/6 359/2/6
f 355/2/6 356/2/6 360/2/6
f 359/1/6 355/1/6 360/1/6
f 352/3/6 357/3/6 361/3/6
f 360/2/6 356/2/6 363/2/6
f 352/3/6 361/3/6 364/3/6
f 361/2/6 362/2/6 365/2/6
f 364/3/6 361/3/6 365/3/6
f 362/2/6 363/2/6 365/2/6
f 363/2/6 356/2/6 366/2/6
f 365/2/6 363/2/6 366/2/6
f 367/3/6 368/3/6 370/3/6
f 368/2/6 369/2/6 371/2/6
f 370/3/6 368/3/6 371/3/6
f 371/2/6 369/2/6 372/2/6
